<svg width="78" height="64" viewBox="0 0 78 64" fill="none" xmlns="http://www.w3.org/2000/svg">
<path d="M34.4814 62.9594C33.3323 63.5659 31.9093 63.1579 31.2563 62.0346L21.5954 45.4168L10.1336 30.577C9.13448 29.2834 9.67684 27.3921 11.2096 26.8245L28.7937 20.3135L45.7927 11.3403C46.9417 10.7337 48.3647 11.1418 49.0177 12.2651L58.6786 28.8829L70.1405 43.7227C71.1395 45.0162 70.5972 46.9076 69.0645 47.4751L51.4803 53.9862L34.4814 62.9594Z" fill="url(#paint0_linear_4020_411)"/>
<path d="M50.6906 29.3303C50.7068 29.3595 50.7457 29.3953 50.8074 29.4375C50.869 29.4798 50.9534 29.5286 51.0604 29.5838L51.6738 29.7597C51.7258 29.75 51.8199 29.7647 51.9562 29.8038C51.9724 29.8331 52.0113 29.8688 52.073 29.9111C52.1119 29.9468 52.1622 29.9858 52.2238 30.0281L52.5743 30.0917C52.6944 30.1016 52.7853 30.1276 52.847 30.1699C52.8924 30.1829 52.9265 30.1927 52.9492 30.1992C53.0855 30.2383 53.1861 30.3163 53.2509 30.4332L53.1922 30.6377C53.1953 30.8844 53.1416 31.0288 53.0311 31.0709C53.0473 31.1001 53.0895 31.1245 53.1577 31.1441C53.1674 31.196 53.1576 31.2301 53.1284 31.2463C53.0926 31.2852 53.0715 31.316 53.065 31.3387L53.0016 31.4312C52.982 31.4994 53.0274 31.5984 53.1376 31.7284C53.1116 31.8192 53.006 31.8873 52.8209 31.9326L52.8112 31.9667C52.889 32.0382 52.9409 32.1145 52.9668 32.1957C52.9765 32.2476 52.9666 32.3677 52.9372 32.556C52.9078 32.7442 52.8621 32.9893 52.8002 33.2911C52.9201 33.473 52.9475 33.6776 52.8824 33.9048C52.8628 33.9729 52.7376 34.1952 52.5068 34.5715C52.5554 34.6592 52.6559 34.7372 52.8085 34.8055C52.8409 34.864 52.8392 34.9127 52.8034 34.9516L52.5499 35.3215C52.5726 35.328 52.5904 35.3945 52.6033 35.5211C52.6129 35.5731 52.6194 35.6364 52.6226 35.7111C52.6257 35.7857 52.6337 35.8864 52.6466 36.013C52.6044 36.0746 52.5506 36.2191 52.4855 36.4462C52.4855 36.4462 52.5017 36.4755 52.5341 36.5339C52.5211 36.5794 52.5145 36.6881 52.5143 36.8602C52.4849 37.0484 52.4571 37.274 52.4309 37.5369C52.4047 37.7999 52.3882 38.0287 52.3816 38.2235C52.3522 38.4117 52.3212 38.5626 52.2886 38.6762C52.243 38.8353 52.1764 38.9391 52.0887 38.9877C52.0984 39.0396 52.1876 39.1144 52.3563 39.2119C52.6289 39.2901 52.9162 39.2742 53.2182 39.1641L53.6817 38.1906C53.711 38.1744 53.7515 38.1615 53.8035 38.1518C53.8327 38.1356 53.8766 38.1113 53.935 38.0789L53.9546 38.0107C53.9611 37.988 53.9741 37.9426 53.9937 37.8744C53.984 37.8225 53.9775 37.7591 53.9744 37.6845C53.8835 37.6584 53.7943 37.5837 53.7068 37.4602L53.8922 37.0709C53.9832 36.9249 54.0077 36.7967 53.9656 36.6862L54.2284 36.7985L54.3357 36.6817L54.2725 36.5161C54.2304 36.4057 54.2159 36.3278 54.2289 36.2823L54.7508 35.3625L54.7659 34.9243C54.7854 34.8561 54.813 34.8026 54.8488 34.7637L54.9658 34.6128C54.9756 34.4927 54.992 34.3499 55.0149 34.1844C55.0313 34.0415 55.0509 33.8874 55.0738 33.7218C55.0868 33.6764 55.1956 33.5969 55.4002 33.4835C55.6471 33.3085 55.7706 33.2209 55.7706 33.2209C55.7966 33.1301 55.7367 33.0391 55.5907 32.9481C55.4382 32.8798 55.3619 32.8456 55.3619 32.8456L55.9234 31.2733L56.0306 31.1565C56.063 31.215 56.1344 31.3092 56.2446 31.4392L56.4588 31.4637C56.5335 31.4605 56.5936 31.4655 56.639 31.4785L57.1013 31.7955C57.1013 31.7955 57.1532 31.7858 57.2571 31.7664C57.361 31.747 57.4243 31.7406 57.4471 31.7471C57.7489 31.8091 57.9534 31.8677 58.0604 31.923C58.0994 31.9587 58.1577 32.0123 58.2356 32.0838C58.3134 32.1553 58.3994 32.2414 58.4934 32.3422L58.5957 32.3715C58.7321 32.2385 58.8458 32.185 58.9367 32.2111L59.3163 32.4306C59.3455 32.4144 59.3828 32.4128 59.4283 32.4258C59.4737 32.4389 59.5224 32.4405 59.5744 32.4308C59.7561 32.4829 59.8242 32.5885 59.7786 32.7475C59.6909 32.7962 59.5788 32.8869 59.4423 33.0199C59.452 33.0719 59.4275 33.2001 59.3689 33.4045C59.3559 33.45 59.3429 33.4954 59.3298 33.5408C59.2876 33.6025 59.242 33.6755 59.1933 33.7598L59.0469 34.0129C59.0404 34.0356 59.0274 34.0811 59.0079 34.1492C58.9883 34.2174 58.9736 34.3115 58.9638 34.4316L58.9147 34.8601C58.5858 35.9213 58.2799 36.7309 57.9969 37.289L57.8067 37.5664C57.7872 37.6346 57.779 37.706 57.7822 37.7806L57.7917 38.0046C57.7852 38.0274 57.7462 38.0776 57.6747 38.1555C57.7006 38.2367 57.6745 38.3275 57.5965 38.4281L57.382 38.6616C57.3755 38.6843 57.3658 38.7184 57.3527 38.7638C57.3397 38.8093 57.3315 38.8807 57.3282 38.9781L57.3084 39.3043C57.3019 39.327 57.2255 39.4649 57.0791 39.718C56.9328 39.9711 56.845 40.1057 56.8158 40.1219C56.8676 40.2843 56.8853 40.4369 56.8689 40.5797C56.8105 40.6121 56.752 40.6445 56.6935 40.6769C56.6351 40.7093 56.5733 40.7531 56.5084 40.8082C56.4693 40.9445 56.4951 41.1117 56.5858 41.3098L55.3651 44.7952C55.3067 44.8276 55.2449 44.8713 55.18 44.9265C55.0923 44.9751 55.0159 45.0269 54.9509 45.0821C54.9672 45.1113 55.0093 45.1357 55.0775 45.1552L55.0038 45.7979C54.9452 46.0024 54.8915 46.1468 54.8427 46.2312L54.8475 46.3432C54.8183 46.3594 54.7679 46.4064 54.6964 46.4842L54.628 46.7228C54.615 46.7682 54.6133 46.8169 54.623 46.8688C54.61 46.9143 54.6002 46.9484 54.5937 46.9711C54.506 47.0197 54.4085 47.1024 54.3013 47.2191L54.3592 47.7889L54.2419 48.1978C54.1997 48.2595 54.1428 48.3292 54.0713 48.4071C53.9998 48.4849 53.925 48.5741 53.847 48.6747C53.8405 48.6974 53.8486 48.712 53.8713 48.7185C53.8648 48.7412 53.8583 48.7639 53.8518 48.7867C53.8323 48.8548 53.8014 48.9197 53.7591 48.9814C53.6941 49.0365 53.6372 49.1062 53.5885 49.1906C53.6371 49.2783 53.6759 49.4 53.705 49.5559L53.5439 49.9891C53.5178 50.08 53.3586 50.2064 53.0663 50.3685C52.8032 50.5143 52.6635 50.6586 52.6471 50.8015L53.2846 51.2793C53.2066 51.3798 53.1189 51.4284 53.0215 51.4251L52.8258 52.3647C52.8614 52.4978 52.8727 52.5871 52.8596 52.6326C52.6064 52.6583 52.449 52.65 52.3873 52.6078C52.3419 52.5947 52.2754 52.5265 52.1879 52.4031C52.1231 52.2861 52.0452 52.2146 51.9543 52.1886C51.8959 52.221 51.8261 52.2501 51.7449 52.276C51.641 52.2954 51.5403 52.3034 51.4429 52.3001C51.4105 52.2416 51.3587 52.1653 51.2873 52.0711C51.1868 51.9931 51.0895 51.9037 50.9954 51.803L50.9223 51.9295L50.6642 51.9293C50.5311 51.9649 50.4564 51.968 50.4402 51.9388C50.3948 51.9258 50.3121 51.8283 50.1921 51.6464C50.0787 51.4418 49.9993 51.3329 49.9538 51.3199C49.9084 51.3069 49.7899 51.3344 49.5983 51.4024C49.4717 51.4152 49.371 51.4232 49.2964 51.4264C49.199 51.4231 49.1308 51.4035 49.0919 51.3678L48.9654 51.2946C48.9654 51.2946 48.9134 51.3043 48.8095 51.3237C48.7511 51.3561 48.6991 51.3658 48.6537 51.3528C48.5628 51.3267 48.4704 51.1773 48.3765 50.9045C48.3311 50.8915 48.2613 50.9206 48.1671 50.992C48.0794 51.0406 48.0274 51.0503 48.0112 51.021L47.5344 50.6262C47.489 50.6131 47.4435 50.6001 47.3981 50.5871C47.3461 50.5968 47.2942 50.6064 47.2422 50.6161L47.1305 50.3628L46.4442 50.0554C46.428 50.0262 46.4118 49.9969 46.3956 49.9677C46.3794 49.9385 46.3518 49.906 46.3129 49.8702C45.9786 49.7498 45.7044 49.6343 45.4903 49.5237L44.9942 48.9389C44.9942 48.9389 44.9845 48.887 44.9651 48.7831L44.9749 48.749C45.0205 48.59 44.9492 48.4097 44.7611 48.2083L44.3038 47.7452L44.3918 47.4386L44.3289 47.0149C44.3907 46.8851 44.4671 46.7472 44.5581 46.6012C44.6427 46.4779 44.7304 46.3433 44.8215 46.1973C44.828 46.1745 44.8199 46.1599 44.7972 46.1534L44.5779 46.2749C44.461 46.3398 44.3685 46.3624 44.3003 46.3428L44.2419 46.2892C44.2257 46.26 44.2225 46.1853 44.2324 46.0652C44.2423 45.9451 44.2538 45.7763 44.267 45.5588L44.2136 45.3591L44.3113 45.0184L44.4429 44.9455C44.456 44.728 44.4773 44.6111 44.5065 44.5949C44.5812 44.5917 44.6689 44.5431 44.7696 44.4491C44.7696 44.4491 44.7534 44.4199 44.721 44.3614C44.7048 44.3322 44.6285 44.298 44.4922 44.2589L44.5117 44.1908C44.5248 44.1453 44.5801 44.0382 44.6776 43.8695L44.7117 43.8793C44.7344 43.8858 44.7913 43.8161 44.8823 43.6701C44.9733 43.5241 44.9961 43.4446 44.9507 43.4315C44.8826 43.412 44.8193 43.4184 44.7608 43.4508C44.725 43.4898 44.6974 43.5433 44.6779 43.6115C44.6583 43.6796 44.6551 43.691 44.6681 43.6455L44.8487 43.1442C44.878 43.1279 44.9283 43.0809 44.9998 43.0031C45.0259 42.9122 45.0731 42.7905 45.1414 42.638C45.187 42.479 45.2505 42.3005 45.3318 42.1026L45.5901 41.8447C45.6812 41.6987 45.7673 41.5268 45.8487 41.3288L45.883 41.0805C45.9122 41.0643 45.9301 41.0448 45.9366 41.0221C45.9431 40.9994 45.9643 40.9686 46 40.9297C46.1074 40.6408 46.2715 40.4543 46.4924 40.3701L46.5315 40.2338C46.5445 40.1884 46.5721 40.1349 46.6144 40.0732C46.6274 40.0278 46.6551 39.9743 46.6973 39.9126C46.8077 39.8705 47.1878 39.5738 47.8376 39.0226L48.1834 38.9742C48.3392 38.9452 48.4594 38.869 48.5439 38.7457C48.5084 38.6126 48.4939 38.4486 48.5006 38.2539C48.5462 38.0948 48.6258 38.0316 48.7394 38.0642C48.8757 38.1033 48.9471 38.1114 48.9536 38.0887C48.9731 38.0206 48.9034 37.9637 48.7444 37.9181C48.6308 37.8855 48.5935 37.8011 48.6326 37.6648L48.784 37.2656C49.2124 37.3147 49.4364 37.3052 49.456 37.2371C49.469 37.1916 49.2435 37.0778 48.7794 36.8956C48.8087 36.8793 48.8721 36.7869 48.9696 36.6182L48.8285 36.4671L48.8684 35.5565L48.8005 35.2789C48.9921 35.2109 49.174 35.091 49.3462 34.9191L49.3171 34.7633C49.2231 34.6625 49.1534 34.5196 49.1081 34.3345C49.0822 34.2534 49.0807 34.13 49.1036 33.9645L48.9139 33.7257C48.927 33.6802 48.9433 33.6235 48.9628 33.5553C48.9823 33.4871 48.9905 33.4157 48.9873 33.3411C49.0231 33.3021 49.067 33.1918 49.1191 33.0101C49.0705 32.9224 49.0625 32.8217 49.0951 32.7081L49.2419 31.9389C49.2257 31.9097 49.216 31.8577 49.2128 31.7831C49.2097 31.7084 49.213 31.611 49.2228 31.4909C49.369 31.4099 49.4551 31.3239 49.4812 31.2331C49.543 31.1033 49.5171 31.0221 49.4035 30.9895C49.3808 30.983 49.3175 30.9894 49.2136 31.0088L49.3456 30.4198C49.3456 30.4198 49.3069 30.1259 49.2296 29.5383C49.2134 29.509 49.2216 29.4376 49.2541 29.324C49.3258 29.0741 49.4525 28.9753 49.6342 29.0274C49.8387 29.086 49.9652 29.1592 50.0138 29.2469C50.0559 29.3573 50.0883 29.4157 50.1111 29.4222C50.2507 29.3639 50.4439 29.3333 50.6906 29.3303ZM48.475 49.7895C48.4392 49.8284 48.4376 49.8771 48.47 49.9356C48.5024 49.9941 48.5478 50.0071 48.6063 49.9747C48.6193 49.9292 48.5756 49.8675 48.475 49.7895ZM52.8142 49.1898L52.6486 49.253C52.6421 49.2757 52.6875 49.2887 52.7849 49.2921C52.8076 49.2986 52.8174 49.2645 52.8142 49.1898ZM52.4835 48.8C52.4218 48.7577 52.3439 48.7722 52.2497 48.8436C52.2821 48.902 52.3097 48.9345 52.3324 48.941C52.4005 48.9606 52.4509 48.9136 52.4835 48.8ZM46.2575 46.7197C46.1958 46.6774 46.1179 46.6919 46.0237 46.7633C46.0399 46.7925 46.0707 46.8136 46.1161 46.8266C46.1843 46.8462 46.2314 46.8105 46.2575 46.7197ZM50.8928 42.0007L50.4836 42.1416L50.0211 42.0827L49.9479 42.2092L49.9477 42.4673C49.9184 42.4835 49.8746 42.5078 49.8161 42.5402C49.7349 42.5661 49.6391 42.6001 49.5287 42.6422C49.48 42.7265 49.389 42.7865 49.2559 42.8221C49.1907 43.0493 49.0622 43.3689 48.8703 43.781C48.8442 43.8719 48.8116 43.9855 48.7726 44.1218C48.7108 44.2516 48.6457 44.3927 48.5774 44.5452C48.5416 44.5842 48.5059 44.6231 48.4701 44.662C48.4279 44.7236 48.3824 44.7966 48.3336 44.881L48.3627 45.0368C48.382 45.1407 48.3917 45.1927 48.3917 45.1927C48.3949 45.2674 48.3802 45.3615 48.3476 45.4751C48.3281 45.5432 48.3053 45.6227 48.2792 45.7136C48.2305 45.798 48.1784 45.8937 48.1231 46.0008L47.962 46.434L47.9425 46.5021C47.8773 46.7293 48.0508 46.9389 48.4629 47.1308L48.8864 47.326L49.2417 47.5016C49.3325 47.5277 49.438 47.5456 49.5581 47.5555C49.649 47.5815 49.7545 47.5995 49.8746 47.6093C50.0239 47.603 50.1782 47.5366 50.3374 47.4101L50.4008 47.3177C50.5469 47.2367 50.659 47.1459 50.737 47.0453C50.7435 47.0226 50.7452 46.9739 50.742 46.8992C50.7096 46.8408 50.6983 46.7515 50.7082 46.6314L50.6794 46.2174C50.7378 46.185 50.8321 46.1137 50.962 46.0035C51.0108 45.9191 51.0709 45.838 51.1424 45.7602C51.1912 45.6758 51.2546 45.5833 51.3326 45.4828C51.3326 45.4828 51.2986 45.387 51.2306 45.1954C51.1691 44.9811 51.1384 44.8739 51.1384 44.8739C51.1872 44.7896 51.2473 44.7085 51.3188 44.6306C51.361 44.569 51.4098 44.4846 51.4651 44.3776L51.6019 43.9005L51.8021 43.3309L51.8314 43.2287C51.89 43.0243 51.8788 42.8489 51.7978 42.7028C51.7719 42.6216 51.7233 42.5339 51.652 42.4397C51.6293 42.4332 51.5627 42.451 51.4523 42.4931C51.3646 42.5417 51.3094 42.5627 51.2867 42.5562C51.2185 42.5367 51.1099 42.358 50.9609 42.0203L50.8928 42.0007ZM47.4428 44.5149C47.3065 44.4758 47.0759 44.5941 46.751 44.8697C46.7996 44.9574 46.8255 45.0386 46.8287 45.1133L47.1061 45.3035C47.197 45.3295 47.3301 45.2939 47.5055 45.1967C47.5576 45.015 47.5367 44.7877 47.4428 44.5149ZM53.7964 45.6361C53.7347 45.5938 53.6568 45.6084 53.5626 45.6797C53.595 45.7382 53.6226 45.7706 53.6453 45.7772C53.7134 45.7967 53.7638 45.7497 53.7964 45.6361ZM53.8582 42.0766C53.829 42.0928 53.8078 42.1236 53.7948 42.1691C53.7753 42.2372 53.8109 42.2843 53.9018 42.3104C53.9441 42.2487 53.9295 42.1708 53.8582 42.0766ZM51.351 41.4314C51.3121 41.3957 51.2342 41.4102 51.1173 41.475C51.1335 41.5043 51.1757 41.5287 51.2438 41.5482C51.312 41.5677 51.3477 41.5288 51.351 41.4314ZM49.108 39.6081L48.9862 39.647C48.9732 39.6924 48.9748 39.7297 48.991 39.759L49.108 39.6081ZM53.3147 40.1137C53.2789 40.1526 53.2773 40.2013 53.3097 40.2598C53.3194 40.3117 53.3681 40.3134 53.4558 40.2648C53.4753 40.1966 53.4283 40.1463 53.3147 40.1137ZM50.7983 38.9865C50.7366 38.9442 50.6766 38.9393 50.6181 38.9717C50.5889 38.9879 50.584 39.0479 50.6033 39.1518C50.6488 39.1649 50.7137 39.1097 50.7983 38.9865ZM49.8561 36.3561C49.8204 36.395 49.8187 36.4437 49.8511 36.5022C49.8673 36.5314 49.9273 36.5363 50.0312 36.5169C50.0508 36.4488 49.9924 36.3952 49.8561 36.3561ZM51.7087 34.0108C51.6633 33.9977 51.5854 34.0123 51.4749 34.0544C51.371 34.0738 51.3077 34.0802 51.285 34.0737L51.2509 34.0639L51.1337 34.4728L51.5133 34.6923C51.5459 34.5787 51.554 34.5073 51.5378 34.4781C51.5378 34.4781 51.572 34.4018 51.6403 34.2493C51.6761 34.2104 51.707 34.1455 51.733 34.0546C51.7395 34.0319 51.7314 34.0173 51.7087 34.0108ZM57.4925 35.1898C57.3366 35.2189 57.2489 35.2675 57.2294 35.3356C57.2033 35.4265 57.26 35.5288 57.3995 35.6426L57.6331 35.8571L57.7208 35.8085C57.7014 35.7046 57.6706 35.5974 57.6285 35.487C57.5799 35.3993 57.5346 35.3002 57.4925 35.1898ZM58.2198 33.2963C58.1841 33.3352 58.1824 33.3839 58.2148 33.4424C58.2245 33.4943 58.2732 33.496 58.3609 33.4474C58.3804 33.3792 58.3334 33.3289 58.2198 33.2963ZM57.3288 33.1883L57.4311 33.2176C57.4149 33.1884 57.3971 33.1218 57.3777 33.0179L57.3288 33.1883ZM39.186 26.0314L39.4293 26.2118C39.7116 26.3419 39.9744 26.4542 40.2178 26.5485C40.445 26.6137 40.6462 26.6837 40.8214 26.7585L41.1136 26.7685L41.8728 27.2075L42.2088 27.1932L43.1239 27.6031L43.6448 27.7156C43.6902 27.7286 43.7389 27.7303 43.7909 27.7206L43.9369 27.7256L45.3095 28.3405L45.5676 28.3407C45.6065 28.3765 45.6682 28.4187 45.7525 28.4675C45.8142 28.5098 45.8872 28.5553 45.9715 28.604L46.0933 28.5652C46.1322 28.601 46.2425 28.6449 46.4243 28.697L46.5022 28.6825L47.1156 28.8583C47.4564 28.9561 47.5373 29.1882 47.3584 29.5549L47.1632 29.9784C47.0949 30.1309 47.0477 30.2526 47.0217 30.3434C46.9891 30.457 46.963 30.5479 46.9435 30.616C46.9077 30.655 46.846 30.6987 46.7583 30.7473C46.6641 30.8187 46.5212 30.8883 46.3296 30.9563L46.3101 31.0245L46.6313 31.1903L46.6263 31.3364C46.5807 31.4954 46.4994 31.6074 46.3825 31.6722C46.1941 31.8148 46.069 31.9511 46.0072 32.0809C46.1142 32.1361 46.1677 32.2498 46.1675 32.4219L46.1623 32.826C46.1623 32.826 46.0516 33.1262 45.8303 33.7265L45.6211 33.5559C45.5918 33.5721 45.5609 33.637 45.5284 33.7506L45.4697 33.9551C45.5184 34.0428 45.5556 34.1272 45.5815 34.2084L45.596 34.2863C45.583 34.3317 45.5342 34.4161 45.4497 34.5394C45.3652 34.6627 45.3229 34.7243 45.3229 34.7243C45.2969 34.8152 45.3195 34.9077 45.3908 35.0019C45.3648 35.0928 45.3095 35.1999 45.225 35.3231C45.225 35.3231 45.2379 35.3637 45.2638 35.4449C45.2443 35.5131 45.2231 35.5439 45.2004 35.5374C45.1906 35.6575 45.1434 35.7792 45.0589 35.9024C44.9581 35.9965 44.9078 36.0435 44.9078 36.0435L44.8782 36.4038C44.8684 36.5239 44.8683 36.61 44.878 36.6619C44.8811 36.7366 44.8795 36.7853 44.873 36.808C44.8599 36.8534 44.7949 36.9085 44.678 36.9734C44.5611 37.0382 44.4961 37.0933 44.4831 37.1387C44.4831 37.1387 44.4863 37.2134 44.4926 37.3627C44.5412 37.4504 44.5623 37.5056 44.5558 37.5284L44.2193 38.0588C44.3198 38.1368 44.3035 38.2796 44.1702 38.4873L43.9507 38.8669C43.9408 38.987 43.9375 39.0844 43.9407 39.159C43.9211 39.2272 43.9048 39.284 43.8918 39.3294L43.6868 39.7869L43.4481 39.9766C43.4578 40.0286 43.4658 40.1292 43.4721 40.2786L43.2817 40.814C43.3108 40.9699 43.322 41.0591 43.3155 41.0819L42.8768 41.583C42.8768 41.583 42.8849 41.5976 42.9011 41.6268C42.8946 41.6496 42.8962 41.6869 42.9059 41.7388C42.8863 41.807 42.8635 41.8865 42.8375 41.9774C42.7822 42.0845 42.7204 42.2142 42.6521 42.3668L42.603 42.7952C42.5868 42.766 42.5152 42.9299 42.3882 43.2868L42.3978 43.5108C42.4075 43.5628 42.4204 43.6034 42.4366 43.6326C42.4301 43.6553 42.4236 43.678 42.4171 43.7008C42.3813 43.7397 42.3456 43.7786 42.3098 43.8175C42.2741 43.8564 42.2464 43.91 42.2269 43.9781L41.8558 45.015L41.0207 47.5414C40.829 47.7814 40.7168 47.9583 40.6842 48.0719L40.6695 48.252C40.6564 48.2974 40.658 48.3348 40.6742 48.364C40.6904 48.3932 40.6953 48.4192 40.6888 48.4419L40.6056 48.8606C40.5926 48.9061 40.5113 49.018 40.3618 49.1964C40.2774 49.1476 40.1817 49.0956 40.0746 49.0403C39.9611 49.0077 39.854 48.9524 39.7534 48.8744C39.7048 48.7867 39.6221 48.6893 39.5054 48.582C39.4826 48.5755 39.4242 48.6079 39.33 48.6792C39.2423 48.7278 39.1757 48.7456 39.1303 48.7326L38.9649 48.5377C38.8546 48.4077 38.6697 48.2809 38.4101 48.1573C38.3387 48.2352 38.2737 48.2903 38.2152 48.3227L37.9328 48.2786C37.8354 48.2753 37.7527 48.2638 37.6845 48.2443L37.5775 48.103C37.5451 48.0445 37.4802 48.0136 37.3828 48.0103L37.0225 47.9807C36.9251 47.9774 36.8537 47.9692 36.8083 47.9562C36.7629 47.9431 36.7288 47.9334 36.7061 47.9268L36.1415 47.5806C36.0896 47.5903 36.0409 47.5886 35.9955 47.5756C35.9208 47.5787 35.8348 47.5787 35.7374 47.5753L35.4502 47.4192C35.4536 47.3218 35.3984 47.2569 35.2849 47.2243C35.2621 47.2178 35.1956 47.2356 35.0852 47.2777C34.9682 47.3425 34.9049 47.3489 34.8952 47.297C34.8952 47.297 34.8336 47.2547 34.7103 47.1702C34.6519 47.2026 34.5853 47.2204 34.5106 47.2236L34.2916 47.087C34.2527 47.0513 34.2251 47.0188 34.2089 46.9895C34.17 46.9538 34.1392 46.9327 34.1165 46.9261L33.9363 46.9114C33.9494 46.8659 33.9332 46.7507 33.888 46.5656C33.823 46.6207 33.7969 46.7116 33.8098 46.8382L33.5079 46.8623C33.4689 46.8265 33.4106 46.7729 33.3327 46.7014C33.2549 46.6299 33.1657 46.5552 33.0651 46.4772C33.0781 46.4317 33.0604 46.3652 33.0117 46.2775L32.9095 46.2481L32.6367 46.4281C32.5847 46.4377 32.5246 46.4328 32.4565 46.4133C32.3656 46.3872 32.2715 46.3725 32.1741 46.3692L31.9453 46.2667L32.3848 44.9913C32.5245 44.933 32.6106 44.8471 32.6431 44.7335L32.6872 44.4511L33.2244 42.835C33.27 42.676 33.4178 42.6323 33.6676 42.7039C33.7163 42.7916 33.7714 42.8566 33.833 42.8989C33.9174 42.9476 34.0391 42.9948 34.1981 43.0404C34.3506 43.1087 34.5323 43.1608 34.7433 43.1968C34.7888 43.2098 34.8456 43.2261 34.9137 43.2456C34.9753 43.2879 35.0597 43.3367 35.1668 43.3919L35.4637 43.514L36.0285 43.6021L36.598 43.8023C36.6434 43.8154 36.6856 43.8398 36.7245 43.8755L36.8511 43.9487C37.0263 44.0235 37.1707 44.0772 37.2843 44.1098C37.3752 44.1358 37.432 44.1521 37.4547 44.1586C37.526 44.2528 37.6071 44.313 37.698 44.339C37.7434 44.3521 37.836 44.3294 37.9756 44.2711C38.1152 44.2128 38.2078 44.1902 38.2532 44.2032C38.2728 44.1351 38.2972 44.0929 38.3264 44.0767L38.3412 43.8965C38.3315 43.8446 38.3364 43.7845 38.3559 43.7164C38.369 43.6709 38.3772 43.5995 38.3805 43.5021C38.6337 43.4764 38.8531 43.1828 39.0387 42.6214L38.9122 42.5482L38.6736 42.4798C38.6574 42.4506 38.6624 42.3905 38.6884 42.2997C38.7145 42.2088 38.786 42.131 38.9029 42.0661C39.0491 41.9851 39.1221 41.9446 39.1221 41.9446C39.0899 41.7141 39.095 41.482 39.1374 41.2483C39.1504 41.2029 39.2252 41.1137 39.3617 40.9807C39.4981 40.8477 39.5826 40.7245 39.6152 40.6109L39.6541 40.7326L39.7758 40.6938L39.8051 40.5916C39.7727 40.5331 39.6884 40.4843 39.5521 40.4452C39.5651 40.3998 39.5814 40.343 39.6009 40.2749C39.5912 40.2229 39.5848 40.1596 39.5816 40.0849C39.5202 39.8706 39.444 39.7504 39.3531 39.7244L39.0853 39.7582C39.0691 39.729 39.0367 39.6705 38.988 39.5828C38.9102 39.5113 38.8599 39.4723 38.8372 39.4658C38.8534 39.495 38.743 39.5371 38.506 39.5921C38.308 39.5108 38.1571 39.4798 38.0532 39.4991C37.9398 39.2945 37.849 39.1824 37.7808 39.1629L37.6445 39.1238L37.3767 39.1576C37.3539 39.1511 37.3166 39.1527 37.2647 39.1624C37.2127 39.1721 37.1608 39.1818 37.1088 39.1915L36.8848 39.201C36.8167 39.1815 36.7502 39.1132 36.6854 38.9963C36.6043 38.8501 36.5525 38.7738 36.5298 38.7673C36.4486 38.7932 36.3366 38.7979 36.1938 38.7816C36.1938 38.7816 36.2003 38.7589 36.2133 38.7134C36.1971 38.6842 36.1988 38.6355 36.2183 38.5673C36.2444 38.4765 36.2948 38.3434 36.3696 38.1682C36.4152 38.0092 36.4852 37.808 36.5796 37.5646L36.6868 37.4478C36.6837 37.3731 36.7179 37.2109 36.7896 36.961C36.8253 36.9221 36.8708 36.8491 36.9261 36.742C36.9814 36.6349 37.0156 36.5586 37.0286 36.5132L37.0481 36.4451C37.0612 36.3996 37.071 36.2795 37.0777 36.0848L37.1168 35.9484C37.1624 35.7894 37.2469 35.6661 37.3703 35.5786C37.6627 35.4166 37.8315 35.3421 37.877 35.3551L38.1543 35.5453C38.1998 35.5583 38.2598 35.5632 38.3345 35.56L38.5487 35.5846C38.5811 35.6431 38.6282 35.6934 38.6898 35.7357C38.7222 35.7942 38.7806 35.8478 38.8649 35.8965C38.9169 35.8869 38.9802 35.8804 39.0549 35.8772C39.1003 35.8903 39.1717 35.8985 39.2691 35.9018L39.6146 36.1115C39.8223 36.2448 39.9602 36.3212 40.0283 36.3408L40.3886 36.3703C40.4341 36.3834 40.4681 36.4792 40.4906 36.6577C40.3932 36.6544 40.3201 36.6949 40.2714 36.7793L40.2373 36.7695C40.1919 36.7565 40.1237 36.7369 40.0328 36.7109C39.942 36.6848 39.8543 36.6474 39.77 36.5986L39.6968 36.7251L39.6773 36.7933C39.6577 36.8614 39.6804 36.954 39.7452 37.0709C39.7679 37.0774 39.8133 37.0905 39.8815 37.11C39.9204 37.1457 39.9821 37.188 40.0664 37.2368C40.1249 37.2044 40.1737 37.12 40.2127 36.9837C40.2744 37.026 40.3588 36.9887 40.4661 36.872C40.4985 36.9304 40.5878 36.9191 40.7339 36.8381L40.8023 36.5996C40.8608 36.5672 40.929 36.5007 41.007 36.4001C41.1856 36.3776 41.2912 36.3095 41.3237 36.1959C41.3237 36.1959 41.3075 36.1667 41.2751 36.1082C41.2589 36.079 41.2573 36.0417 41.2703 35.9962L41.3094 35.8599C41.329 35.7918 41.3485 35.7236 41.3681 35.6555C41.3876 35.5873 41.425 35.4997 41.4803 35.3926L41.4172 35.227C41.5017 35.1037 41.7535 34.8686 42.1726 34.5216L42.1921 34.4535C42.2182 34.3626 42.2069 34.2733 42.1583 34.1856C42.0738 34.3089 41.9065 34.4208 41.6564 34.5212C41.5981 34.3815 41.5853 34.2549 41.6178 34.1413C41.6244 34.1186 41.7998 34.0214 42.144 33.8496L42.0761 33.572L41.93 33.567C41.8392 33.541 41.8133 33.4598 41.8524 33.3235C41.9108 33.2911 41.9937 33.2165 42.1009 33.0997C42.1724 33.0219 42.2212 32.9375 42.2472 32.8466L42.1743 32.7151C42.1808 32.6924 42.2913 32.5643 42.5058 32.3307L42.4817 32.0288C42.5143 31.9152 42.6134 31.8699 42.7789 31.8927C42.7627 31.8635 42.7092 31.8359 42.6183 31.8098L42.6135 31.6978C42.7012 31.6492 42.7662 31.5941 42.8085 31.5324C42.8021 31.3831 42.7454 31.2808 42.6383 31.2255C42.5247 31.1929 42.4371 31.1555 42.3755 31.1132C42.1872 31.0838 42.0022 31.0431 41.8205 30.991C41.6388 30.9389 41.4457 30.8835 41.2412 30.8249C41.2445 30.7275 41.2008 30.6658 41.1099 30.6397C41.0645 30.6267 40.9329 30.6996 40.7153 30.8585C40.579 30.8194 40.5239 30.6684 40.5501 30.4054L40.4479 30.3761C40.4284 30.4443 40.4007 30.4978 40.365 30.5367C40.1864 30.5593 39.9414 30.5136 39.6298 30.3997L39.2698 30.1121C39.2763 30.0893 39.1887 30.0519 39.0069 29.9998C38.916 29.9737 38.8625 29.9461 38.8463 29.9169L38.374 29.8921C38.3058 29.8725 38.2425 29.879 38.1841 29.9114C38.1548 29.9276 38.0721 29.9161 37.9358 29.877C37.767 29.7795 37.7153 29.6171 37.7804 29.39C37.8065 29.2991 37.9089 29.0703 38.0878 28.7037C38.0878 28.7037 38.1171 28.6875 38.1755 28.655C38.2113 28.6161 38.2357 28.5739 38.2487 28.5285L38.493 27.6766C38.493 27.6766 38.5676 27.6734 38.717 27.6671C38.6491 27.3034 38.6445 27.0194 38.7032 26.8149C38.7357 26.7013 38.8365 26.6073 39.0053 26.5328L39.0301 26.0605C39.134 26.0411 39.186 26.0314 39.186 26.0314ZM33.5632 44.9973L33.5291 44.9876C33.3928 44.9485 33.2564 44.9954 33.12 45.1284C33.1621 45.2388 33.2058 45.3005 33.2513 45.3135L33.7286 45.1923C33.6865 45.0818 33.6314 45.0169 33.5632 44.9973ZM34.3818 44.4576C34.3753 44.4803 34.3963 44.5355 34.4449 44.6232C34.4449 44.6232 34.4742 44.607 34.5326 44.5746L34.3818 44.4576ZM39.8005 45.4951L39.5226 45.8211L39.6734 45.9381L39.7804 46.0794C39.9428 46.0276 40.0468 45.9222 40.0924 45.7632C39.9821 45.6332 39.8848 45.5439 39.8005 45.4951ZM41.395 43.1495C41.382 43.195 41.3803 43.2437 41.39 43.2956C41.377 43.341 41.3753 43.3897 41.385 43.4417L41.6235 43.5101L41.6967 43.3836L41.5897 43.2422L41.395 43.1495ZM43.3594 41.0576C43.3464 41.103 43.3317 41.1111 43.3155 41.0819L43.3594 41.0576ZM41.7342 39.7802C41.5685 39.9294 41.5521 40.0722 41.6851 40.2087C41.7143 40.1925 41.768 40.1341 41.846 40.0335C41.8655 39.9654 41.8283 39.8809 41.7342 39.7802ZM42.6595 39.6399L42.4789 40.1413L42.5518 40.2728L42.7903 40.3412L42.8537 40.2487C42.8537 40.2487 42.8392 40.1708 42.8101 40.015C42.7712 39.9792 42.7908 39.9111 42.8688 39.8105C42.8006 39.791 42.7309 39.7341 42.6595 39.6399ZM42.4706 38.6269C42.4576 38.6723 42.4413 38.7291 42.4217 38.7972C42.4022 38.8654 42.3713 38.9303 42.329 38.9919C42.3517 38.9984 42.407 38.9774 42.4947 38.9288C42.5142 38.8606 42.5062 38.76 42.4706 38.6269ZM38.3618 37.5225L38.3278 37.5127C38.2823 37.4997 38.1622 37.4898 37.9675 37.4831L38.089 37.7024C38.1149 37.7835 38.2009 37.7836 38.3471 37.7026C38.3731 37.6117 38.3781 37.5517 38.3618 37.5225ZM42.6737 34.9604C42.6445 34.9766 42.6542 35.0285 42.7028 35.1162C42.7482 35.1293 42.7856 35.1277 42.8148 35.1115L42.6737 34.9604ZM43.0886 33.8992C43.0432 33.8862 42.9458 33.8829 42.7965 33.8892L42.8205 34.1911C42.9179 34.1945 42.9764 34.1621 42.9959 34.0939L43.0886 33.8992ZM44.6569 33.5745C44.6439 33.6199 44.6276 33.6767 44.6081 33.7449C44.5885 33.813 44.5609 33.8666 44.5251 33.9055C44.5413 33.9347 44.5933 33.925 44.681 33.8764L44.6569 33.5745ZM44.8378 32.815C44.8021 32.8539 44.8004 32.9026 44.8328 32.9611C44.8652 33.0196 44.922 33.0358 45.0032 33.01C44.9935 32.958 44.9384 32.893 44.8378 32.815ZM45.716 31.0385C45.6218 31.1098 45.5844 31.1975 45.6037 31.3014L45.7401 31.3404L45.8668 31.1555C45.8344 31.0971 45.7841 31.0581 45.716 31.0385ZM41.049 28.1514C41.0359 28.1968 41.0456 28.2488 41.078 28.3072C41.0942 28.3364 41.1429 28.3381 41.2241 28.3122C41.2437 28.2441 41.1853 28.1905 41.049 28.1514ZM41.1617 27.3724L40.519 27.2987L40.5528 27.5666C40.5657 27.6932 40.6403 27.776 40.7766 27.8151L41.1126 27.8008C41.1321 27.7327 41.1517 27.6645 41.1712 27.5964C41.1681 27.5217 41.1649 27.447 41.1617 27.3724ZM32.7836 24.2324L32.9929 24.4031C33.1292 24.4421 33.2395 24.4861 33.3239 24.5348L33.5962 24.8711C33.7325 24.9102 33.8137 24.8843 33.8398 24.7934C33.882 24.7318 33.9372 24.7107 34.0054 24.7303L34.2389 24.9447C34.2454 24.922 34.3088 24.9156 34.4289 24.9255C34.4644 25.0586 34.5374 25.1901 34.6476 25.3201C34.6476 25.3201 34.7109 25.3137 34.8375 25.3008C34.9154 25.3723 35.0224 25.5136 35.1585 25.7247L35.3773 26.1194L35.6256 26.1537C35.6353 26.2056 35.653 26.2722 35.6789 26.3534C35.6983 26.4573 35.7177 26.5612 35.7371 26.6651C35.724 26.7105 35.7727 26.7982 35.8829 26.9282L35.8922 27.4103C35.8857 27.433 35.9132 27.4655 35.9749 27.5077C36.0041 27.4915 36.0528 27.4932 36.121 27.5127C36.1664 27.5258 36.2021 27.5729 36.2279 27.654L36.1931 28.4185C36.1898 28.5159 36.1897 28.6019 36.1929 28.6766C36.1668 28.7675 36.1473 28.8356 36.1343 28.8811L36.1974 29.0467C36.1844 29.0921 36.1762 29.1635 36.1728 29.2609C36.1695 29.3583 36.1597 29.4784 36.1433 29.6212L36.0942 30.0497C36.0063 30.2703 35.9526 30.4148 35.9331 30.4829C35.9135 30.5511 35.8989 30.5592 35.8892 30.5072L35.5775 30.5653C35.6554 30.6368 35.717 30.6791 35.7625 30.6921L35.6502 30.955L35.7717 31.1742C35.7619 31.2943 35.752 31.4144 35.7422 31.5345C35.7031 31.6708 35.6592 31.7812 35.6104 31.8655L35.5372 31.992L35.3668 31.9432C35.2661 32.0372 35.1962 32.1524 35.1571 32.2887L35.3566 32.4934C35.337 32.5616 35.3142 32.6411 35.2882 32.732C35.2621 32.8228 35.2474 32.917 35.2441 33.0143C35.1627 33.2123 35.0879 33.3875 35.0196 33.54C34.9513 33.6925 34.8927 33.811 34.8439 33.8953C34.8082 33.9343 34.7026 34.0023 34.5272 34.0995C34.5759 34.1872 34.631 34.2522 34.6926 34.2945L34.6438 34.4649C34.5561 34.5135 34.4911 34.5686 34.4488 34.6302C34.3708 34.7308 34.2733 34.8995 34.1562 35.1364C34.1269 35.1526 34.0555 35.1444 33.9419 35.1118L33.7132 35.0094C33.7132 35.0094 33.6839 35.0256 33.6255 35.058L33.6934 35.3356C33.7388 35.3486 33.7762 35.347 33.8054 35.3308C33.9028 35.3342 33.9759 35.2937 34.0246 35.2093C34.1999 35.2841 34.2549 35.4351 34.1898 35.6623L33.7894 36.8014C33.6237 36.9506 33.5083 37.1387 33.4431 37.3659L33.4379 37.7701C33.4021 37.809 33.3745 37.8625 33.3549 37.9307C33.3289 38.0215 33.2915 38.1092 33.2427 38.1935L32.9651 38.2614C33.0105 38.2744 33.0527 38.2988 33.0916 38.3346L32.9207 38.8019C32.898 38.7954 32.8655 38.8229 32.8232 38.8846C32.8167 38.9073 32.8621 39.0063 32.9593 39.1817L32.4958 40.1552C32.4081 40.2038 32.3431 40.2589 32.3009 40.3206C32.2098 40.4666 32.1205 40.5639 32.0328 40.6125C31.9158 40.6773 31.8476 40.7438 31.828 40.8119L31.8426 40.8898C31.8361 40.9126 31.8198 40.9694 31.7937 41.0602C31.7677 41.1511 31.7205 41.2728 31.6522 41.4253C31.6326 41.4935 31.6244 41.5649 31.6276 41.6395C31.6016 41.7304 31.5755 41.8213 31.5494 41.9121C31.4517 42.2529 31.2906 42.6861 31.0661 43.2118C31.0434 43.2053 31.0077 43.1582 30.9591 43.0705L30.891 43.051C30.8683 43.0444 30.8504 43.0639 30.8374 43.1093L30.8371 43.3674L30.8271 43.6596C30.801 43.7505 30.7409 43.8316 30.6467 43.9029C30.5428 43.9223 30.4324 43.9644 30.3155 44.0292L30.0326 44.5012C29.9384 44.5726 29.75 44.6292 29.4676 44.6711C29.5067 44.5348 29.4694 44.4504 29.3558 44.4178L29.2877 44.3983C29.1741 44.3657 29.0977 44.4176 29.0586 44.5539L29.0632 44.924L28.3373 45.269L28.2934 45.2933C28.248 45.2803 28.1216 45.1211 27.9141 44.8157L27.8702 44.84C27.8118 44.8724 27.776 44.9114 27.763 44.9568C27.7174 45.1158 27.7238 45.1791 27.7823 45.1467L27.6896 45.3414L27.2807 45.2242L27.0128 45.258C26.8862 45.2709 26.8148 45.2627 26.7986 45.2334L26.6477 45.1164C26.6543 45.0937 26.664 45.0596 26.6771 45.0142C26.6901 44.9688 26.721 44.9039 26.7698 44.8195L26.6773 44.7561C26.5864 44.7301 26.5166 44.7592 26.4678 44.8436L26.3994 45.0821C26.3864 45.1275 26.3847 45.1762 26.3944 45.2282C26.3814 45.2736 26.3716 45.3077 26.3651 45.3304C26.232 45.366 26.1005 45.3529 25.9707 45.2911L25.6593 45.0911L25.299 45.0616L24.9727 45.0418C24.9046 45.0222 24.804 44.9442 24.671 44.8078C24.6776 44.7851 24.6127 44.7541 24.4764 44.7151L24.0674 44.5978L23.6878 44.3783C23.6716 44.3491 23.6554 44.3199 23.6392 44.2906C23.623 44.2614 23.5955 44.2289 23.5565 44.1932L23.4105 44.1881L23.3082 44.1588C23.1719 44.1197 23.005 43.8875 22.8073 43.462L22.4959 43.2621C22.4635 43.2036 22.4343 43.1338 22.4084 43.0526C22.23 42.9031 22.1328 42.7277 22.1168 42.5264C22.1006 42.4972 22.1218 42.3804 22.1804 42.1759C22.1806 42.0039 22.1369 41.8561 22.0494 41.7327C22.0332 41.7034 21.9975 41.6563 21.9424 41.5913C21.8872 41.5264 21.798 41.4516 21.6748 41.3671C21.5971 41.1235 21.5826 40.9596 21.6314 40.8752C21.6379 40.8525 21.7483 40.8104 21.9626 40.749C22.177 40.6875 22.2874 40.6454 22.2939 40.6227C22.3069 40.5772 22.3151 40.5058 22.3184 40.4084C22.3153 40.3338 22.278 40.2493 22.2067 40.1551L22.0268 39.8823C22.0041 39.8757 21.996 39.8611 22.0025 39.8384C21.9701 39.7799 21.9636 39.7166 21.9832 39.6485L21.8664 39.5412L22.028 38.5919L22.6188 36.9173C22.648 36.9011 22.6773 36.8849 22.7065 36.8687C22.7357 36.8525 22.7682 36.825 22.804 36.786C22.83 36.6952 22.8707 36.5962 22.926 36.4891C22.9586 36.3755 23.009 36.2425 23.0773 36.09L23.1846 35.9732L23.4133 36.0757C23.488 36.0725 23.6048 36.0937 23.7639 36.1393C23.8093 36.1523 23.8904 36.2125 24.0072 36.3197C24.1239 36.427 24.205 36.4871 24.2505 36.5001C24.416 36.523 24.5962 36.5378 24.7909 36.5445C24.9792 36.5739 25.1788 36.6065 25.3898 36.6424C25.4384 36.7301 25.4935 36.7951 25.5551 36.8374C25.6071 36.8277 25.7012 36.8424 25.8375 36.8815L26.4897 37.1791C26.5708 37.3253 26.5917 37.4665 26.5526 37.6028C26.5331 37.671 26.4324 37.765 26.2505 37.8849L26.2357 38.0651C26.2065 38.0813 26.1853 38.1121 26.1723 38.1576C26.1593 38.203 26.1316 38.2565 26.0894 38.3182C25.9818 38.779 25.7817 39.2625 25.489 39.7687C25.5442 39.8337 25.609 39.9506 25.6835 40.1195C25.5114 40.1193 25.3036 40.1581 25.0601 40.2357L25.021 40.3721L25.1135 40.4354C25.1135 40.4354 25.2239 40.3933 25.4447 40.3092L25.5712 40.3823L25.4004 40.8496C25.2965 40.869 25.2007 40.903 25.113 40.9516C25.0739 41.0879 25.0754 41.2113 25.1175 41.3217L25.59 41.0884L25.8381 41.3808C25.9387 41.4588 26.0879 41.5385 26.2859 41.6198C26.3151 41.6036 26.3638 41.6053 26.4319 41.6248C26.4547 41.6314 26.5065 41.7077 26.5876 41.8539L27.3377 41.5527C27.5651 41.4458 27.7275 41.3079 27.8251 41.1392C27.9614 41.1783 28.0588 41.0956 28.1175 40.8912L28.1423 40.4189C28.1683 40.328 28.2366 40.2615 28.347 40.2194C28.4475 40.2974 28.4945 40.4338 28.4878 40.6286L28.5803 40.692L28.6875 40.5752C28.707 40.507 28.6649 40.3966 28.5612 40.244L28.3958 40.049C28.4349 39.9127 28.4788 39.8024 28.5276 39.718L28.6013 39.0753L28.9085 38.6471L29.0257 38.2382L29.3083 38.0242L29.3474 37.8879C29.4256 37.6153 29.5718 37.4482 29.7862 37.3868C29.6953 37.3607 29.5899 37.2567 29.4699 37.0748L30.2061 36.1795C30.2029 36.1049 30.2648 35.8891 30.3917 35.5321L31.1436 33.4243L31.5791 31.2627C31.5986 31.1946 31.7026 31.0892 31.891 30.9465C31.8748 30.9173 31.8619 30.8767 31.8522 30.8247C31.8198 30.7663 31.776 30.7046 31.7209 30.6396L31.7502 30.5374L32.0862 30.5231C32.0927 30.5003 32.0911 30.463 32.0814 30.4111C32.0652 30.3818 32.0523 30.3412 32.0426 30.2893L32.0331 30.0653C32.1954 30.0135 32.3742 29.8189 32.5693 29.4815C32.4849 29.4327 32.4493 29.2996 32.4625 29.0821C32.4757 28.8646 32.5262 28.7315 32.6138 28.6829C32.5976 28.6537 32.476 28.6065 32.2488 28.5414L32.2976 28.371L32.4389 28.264C32.4227 28.2348 32.3871 28.1876 32.332 28.1227C32.2768 28.0577 32.199 27.9862 32.0984 27.9082C32.131 27.7946 32.1165 27.6307 32.0551 27.4163L31.909 27.4113L31.797 27.4161C31.797 27.4161 31.7354 27.3738 31.6121 27.2893L31.5098 27.26C31.3963 27.2274 31.2956 27.2354 31.2079 27.2841C31.2014 27.3068 31.1608 27.3197 31.0861 27.3229C31.0277 27.3553 30.9984 27.3715 30.9984 27.3715L30.9887 27.4056C31.0341 27.4186 31.0568 27.4251 31.0568 27.4251L31.1688 27.4204C31.1396 27.4366 31.1023 27.4382 31.0568 27.4251L30.8669 27.4444L30.6088 27.4442C30.5861 27.4377 30.5666 27.4198 30.5504 27.3906C30.557 27.3678 30.5489 27.3532 30.5261 27.3467C30.458 27.3272 30.3849 27.3677 30.3069 27.4682C30.2484 27.5006 30.211 27.5883 30.1946 27.7311C29.9284 27.8022 29.8308 27.971 29.902 28.2372C29.7168 28.4545 29.5834 28.7482 29.5019 29.1182L28.9502 30.6564C28.8463 30.6758 28.7358 30.7179 28.6189 30.7827C28.4662 30.8864 28.372 30.9578 28.3363 30.9967C28.3363 30.9967 28.3476 30.9999 28.3704 31.0065C28.3931 31.013 28.453 31.1039 28.5503 31.2793C28.5534 31.354 28.6021 31.4417 28.6961 31.5424L29.4019 31.7817C29.4604 31.7493 29.5124 31.7396 29.5578 31.7526L29.7329 31.9135C29.7557 31.92 29.7816 31.9151 29.8109 31.8989C29.8109 31.8989 29.8222 31.9022 29.8449 31.9087L30.0251 31.9235C30.0478 31.93 30.0754 31.9625 30.1078 32.021C30.124 32.0502 30.1662 32.0746 30.2343 32.0941C30.2635 32.0779 30.3463 32.0894 30.4826 32.1284L30.5117 32.2843L30.3897 32.5812L30.3651 32.7954L30.3456 32.8636C30.3195 32.9545 30.2415 33.055 30.1116 33.1653C29.9881 33.2528 29.9199 33.3193 29.9069 33.3647L29.965 33.6764L29.8041 33.8516L29.8184 34.1876C29.7307 34.2362 29.5651 34.2993 29.3216 34.377C29.315 34.3997 29.3361 34.4549 29.3847 34.5426C29.3847 34.5426 29.4513 34.5248 29.5844 34.4893L29.7548 34.5381L29.7059 34.7085C29.6767 34.7247 29.6475 34.7409 29.6182 34.7571C29.5825 34.796 29.55 34.8236 29.5208 34.8398C29.5208 34.8398 29.4752 34.9128 29.3842 35.0588C29.1699 35.1203 29.04 35.1445 28.9946 35.1315L28.8194 34.9706C28.7254 34.8699 28.667 34.8163 28.6443 34.8097L28.4982 34.8047C28.4463 34.8144 28.3862 34.8095 28.3181 34.79L26.9014 34.4575C26.7716 34.3957 26.7149 34.2934 26.7312 34.1506L26.7267 33.7805C26.6748 33.7902 26.5303 33.8225 26.2932 33.8774C26.1179 33.9747 25.9912 33.9875 25.9134 33.916L25.636 33.7259C25.5841 33.7356 25.5354 33.7339 25.4899 33.7209C25.4445 33.7078 25.3845 33.7029 25.3098 33.7061C25.2027 33.6508 25.1103 33.5874 25.0324 33.5159C24.9253 33.4606 24.8183 33.4053 24.7112 33.35L24.643 33.3305C24.4613 33.2784 24.2795 33.3123 24.0976 33.4322C23.997 33.3542 23.9906 33.2049 24.0785 32.9842L24.5175 32.225L24.4884 32.0692C24.4852 31.9945 24.4967 31.9117 24.5227 31.8209C24.5911 31.6684 24.6706 31.6051 24.7615 31.6312L24.854 31.6946C24.8832 31.6784 24.9043 31.6475 24.9174 31.6021C24.9174 31.6021 24.9012 31.5729 24.8688 31.5144L24.7325 31.4753C24.7585 31.3845 24.7992 31.2855 24.8545 31.1784C24.887 31.0648 24.9375 30.9318 25.0058 30.7793C25.0935 30.7307 25.1585 30.6755 25.2007 30.6139L25.196 30.5019C25.2285 30.3883 25.2741 30.2293 25.3328 30.0248C25.3687 29.8138 25.4209 29.5461 25.4894 29.2215C25.5771 29.1729 25.6891 29.1681 25.8254 29.2072C25.8643 29.243 25.913 29.2446 25.9714 29.2122C26.0299 29.1798 26.051 29.149 26.0348 29.1198C26.0024 29.0613 25.9375 29.0304 25.8401 29.0271C25.8109 29.0433 25.7801 29.0221 25.7477 28.9637C25.7934 28.6326 25.8522 28.3421 25.9238 28.0922C25.9728 27.8358 26.0346 27.62 26.1095 27.4448L26.3778 26.8948C26.4396 26.765 26.4982 26.6465 26.5535 26.5395C26.6022 26.4551 26.6364 26.3789 26.6559 26.3107L26.7779 26.0138C26.8234 26.0268 26.9321 26.0334 27.1042 26.0336C27.247 26.0499 27.3249 26.0354 27.338 25.99C27.3575 25.9218 27.1888 25.8243 26.8318 25.6973L26.8709 25.561C26.8904 25.4929 26.9132 25.4133 26.9393 25.3225C26.9588 25.2543 26.9963 25.1667 27.0515 25.0596C27.2304 24.693 27.3281 24.4382 27.3444 24.2954C27.3575 24.25 27.3932 24.2111 27.4517 24.1786C27.442 24.1267 27.4534 24.0439 27.486 23.9303L27.5153 23.8281C27.6192 23.8087 27.715 23.7747 27.8027 23.7261C27.8189 23.7554 27.8351 23.7846 27.8513 23.8138C27.8675 23.8431 27.8837 23.8723 27.8999 23.9015C27.9454 23.9145 27.9973 23.9049 28.0558 23.8725L28.1778 23.5755L28.0853 23.5121C28.0172 23.4926 27.8759 23.5136 27.6616 23.575L27.6862 23.3608L27.9495 22.9569C28.102 23.0252 28.2578 23.0822 28.4168 23.1278C28.5531 23.1669 28.6748 23.214 28.7819 23.2693L29.1031 23.4352C29.0966 23.4579 29.0479 23.4562 28.957 23.4302C28.9408 23.401 28.8889 23.4106 28.8012 23.4593L28.7378 23.5517C28.8026 23.6686 28.8886 23.7548 28.9956 23.81C29.1548 23.6836 29.2831 23.622 29.3805 23.6254C29.439 23.593 29.4747 23.554 29.4877 23.5086C29.5689 23.4827 29.6939 23.5185 29.8626 23.6161C29.921 23.5837 29.9095 23.7525 29.828 24.1225L29.7644 24.473C29.7968 24.5315 29.8584 24.5737 29.9493 24.5998C30.0629 24.6324 30.1343 24.6406 30.1635 24.6244L30.5679 24.3715C30.5972 24.3553 30.6491 24.3456 30.7238 24.3425C30.7757 24.3328 30.839 24.3263 30.9137 24.3232C30.9787 24.268 31.0956 24.2032 31.2645 24.1287L31.6784 24.0999C31.7693 24.126 31.8715 24.1553 31.9851 24.1878C32.0987 24.2204 32.2383 24.2481 32.4038 24.271C32.433 24.2548 32.4996 24.237 32.6035 24.2176C32.7074 24.1983 32.7674 24.2032 32.7836 24.2324ZM28.3986 42.2257C28.3597 42.1899 28.311 42.1882 28.2525 42.2206C28.1941 42.2531 28.1811 42.2985 28.2135 42.357C28.2589 42.37 28.3206 42.3262 28.3986 42.2257ZM29.3685 41.2868C29.3004 41.2672 29.1299 41.3044 28.8571 41.3983C28.9869 41.4601 29.0761 41.5348 29.1247 41.6225L29.2803 41.8515C29.3097 41.6633 29.3375 41.5237 29.3635 41.4329C29.3669 41.3355 29.3685 41.2868 29.3685 41.2868ZM23.04 39.4352C23.0011 39.3995 22.9232 39.414 22.8063 39.4788C22.8225 39.5081 22.8533 39.5292 22.8987 39.5422C22.9669 39.5618 23.014 39.5261 23.04 39.4352ZM23.9659 38.7787C23.9301 38.8177 23.9284 38.8664 23.9609 38.9248C23.9705 38.9768 24.0192 38.9784 24.1069 38.9298C24.1265 38.8617 24.0794 38.8113 23.9659 38.7787ZM24.7513 37.1969L24.7173 37.1872C24.581 37.1481 24.4478 37.1837 24.3179 37.2939C24.1816 37.2548 24.0484 37.2904 23.9185 37.4007L24.249 38.0486L24.5559 37.8785C24.5496 37.7291 24.6147 37.5019 24.7513 37.1969ZM29.8922 38.5604L29.8092 38.721L29.8774 38.7406L29.9262 38.5702L29.8922 38.5604ZM29.9069 38.3802L29.8533 38.4386L29.8776 38.4825L29.9751 38.3998L29.9069 38.3802ZM27.54 33.6449C27.4458 33.7162 27.4117 33.7925 27.4376 33.8737L27.6663 33.9761L27.7347 33.7376L27.54 33.6449ZM27.6718 33.3139C27.6426 33.3301 27.5825 33.3252 27.4917 33.2991L27.4721 33.3673C27.4656 33.39 27.4737 33.4046 27.4964 33.4111C27.4964 33.4111 27.4932 33.4225 27.4867 33.4452C27.5841 33.4485 27.6458 33.4048 27.6718 33.3139ZM32.3165 34.0926C32.2873 34.1088 32.2629 34.151 32.2434 34.2191C32.2596 34.2483 32.3017 34.2727 32.3699 34.2923C32.3505 34.1884 32.3327 34.1218 32.3165 34.0926ZM33.0968 32.9149L33.0138 33.0755C33.0624 33.1632 33.0801 33.3158 33.067 33.5333C33.0279 33.6696 33.0878 33.7606 33.2469 33.8062L33.3832 33.8452L33.4563 33.7187C33.4628 33.696 33.4694 33.6733 33.4759 33.6506C33.4532 33.644 33.4451 33.6294 33.4516 33.6067L33.4468 33.4947C33.4598 33.4493 33.4761 33.3925 33.4957 33.3243C33.5087 33.2789 33.5169 33.2075 33.5202 33.1101C33.491 33.1263 33.4196 33.1181 33.306 33.0855L33.0968 32.9149ZM32.6688 32.3497C32.6103 32.3821 32.5778 32.4096 32.5713 32.4323C32.5518 32.5005 32.5988 32.5509 32.7124 32.5834C32.7546 32.5218 32.7401 32.4439 32.6688 32.3497ZM27.9381 29.813L27.7823 29.8421L27.8211 29.9639C27.8503 29.9477 27.8682 29.9282 27.8747 29.9055C27.8812 29.8828 27.9024 29.852 27.9381 29.813ZM29.3913 27.5745C29.479 27.5259 29.544 27.4708 29.5863 27.4091C29.5993 27.3637 29.5734 27.2825 29.5086 27.1656L29.3913 27.5745ZM35.8712 29.0269C35.8095 28.9846 35.7316 28.9992 35.6374 29.0705C35.6698 29.129 35.6974 29.1614 35.7201 29.168C35.7882 29.1875 35.8386 29.1405 35.8712 29.0269ZM30.5702 27.0643L30.5311 27.2006C30.5473 27.2299 30.5895 27.2542 30.6577 27.2738L30.7113 27.2154C30.7243 27.17 30.7227 27.1326 30.7065 27.1034L30.5702 27.0643ZM28.7642 26.5464C28.7284 26.5854 28.7267 26.6341 28.7592 26.6925C28.7916 26.751 28.837 26.764 28.8955 26.7316C28.9085 26.6862 28.8647 26.6244 28.7642 26.5464ZM35.7018 27.9457C35.5751 27.9586 35.4842 28.0185 35.4289 28.1256C35.3932 28.1645 35.3915 28.2132 35.4239 28.2717L35.5261 28.301L35.7018 27.9457ZM30.5414 26.6504C30.5154 26.7413 30.525 26.7932 30.5705 26.8062L30.697 26.8794L30.8042 26.7626L30.5414 26.6504ZM31.5166 25.3074C31.4257 25.2813 31.3266 25.3267 31.2194 25.4434L31.268 25.5311C31.4336 25.554 31.5456 25.5492 31.604 25.5168C31.5878 25.4876 31.5716 25.4584 31.5554 25.4291C31.5392 25.3999 31.5263 25.3593 31.5166 25.3074Z" fill="#052930"/>
<defs>
<linearGradient id="paint0_linear_4020_411" x1="32.425" y1="64.0448" x2="47.849" y2="10.2548" gradientUnits="userSpaceOnUse">
<stop stop-color="#F9DBAF"/>
<stop offset="0.495" stop-color="#938167"/>
<stop offset="1" stop-color="#F9DBAF"/>
</linearGradient>
</defs>
</svg>
