<svg width="71" height="72" viewBox="0 0 71 72" fill="none" xmlns="http://www.w3.org/2000/svg">
<path d="M46.2169 9.51919C47.3659 8.91264 48.7889 9.32067 49.4419 10.444L59.1028 27.0617L70.5647 41.9016C71.5638 43.1951 71.0214 45.0865 69.4887 45.654L51.9045 52.165L34.9056 61.1382C33.7565 61.7448 32.3336 61.3368 31.6805 60.2135L22.0197 43.5957L10.5578 28.7559C9.55871 27.4623 10.1011 25.571 11.6338 25.0034L29.2179 18.4924L46.2169 9.51919Z" fill="url(#paint0_linear_4020_428)"/>
<path d="M30.0076 43.1482C29.9914 43.119 29.9525 43.0833 29.8909 43.041C29.8292 42.9987 29.7449 42.95 29.6378 42.8947L29.0244 42.7188C28.9725 42.7285 28.8783 42.7138 28.742 42.6747C28.7258 42.6455 28.6869 42.6097 28.6253 42.5675C28.5864 42.5317 28.5361 42.4927 28.4744 42.4504L28.1239 42.3868C28.0038 42.377 27.9129 42.3509 27.8513 42.3086C27.8058 42.2956 27.7718 42.2858 27.7491 42.2793C27.6127 42.2402 27.5122 42.1622 27.4474 42.0453L27.506 41.8408C27.503 41.5941 27.5567 41.4497 27.6671 41.4076C27.6509 41.3784 27.6087 41.354 27.5406 41.3345C27.5309 41.2825 27.5407 41.2484 27.5699 41.2322C27.6056 41.1933 27.6268 41.1625 27.6333 41.1398L27.6967 41.0473C27.7162 40.9792 27.6709 40.8801 27.5606 40.7501C27.5867 40.6593 27.6922 40.5912 27.8773 40.5459L27.8871 40.5119C27.8092 40.4404 27.7574 40.364 27.7315 40.2828C27.7218 40.2309 27.7316 40.1108 27.761 39.9225C27.7904 39.7343 27.8361 39.4892 27.8981 39.1874C27.7781 39.0055 27.7507 38.8009 27.8159 38.5738C27.8354 38.5056 27.9606 38.2833 28.1915 37.907C28.1429 37.8193 28.0423 37.7413 27.8898 37.673C27.8574 37.6145 27.8591 37.5658 27.8948 37.5269L28.1484 37.1571C28.1256 37.1506 28.1079 37.084 28.095 36.9574C28.0853 36.9054 28.0789 36.8421 28.0757 36.7674C28.0725 36.6928 28.0645 36.5921 28.0516 36.4655C28.0939 36.4039 28.1476 36.2595 28.2127 36.0323C28.2127 36.0323 28.1965 36.0031 28.1641 35.9446C28.1772 35.8992 28.1837 35.7904 28.1839 35.6184C28.2133 35.4301 28.2411 35.2045 28.2673 34.9416C28.2936 34.6787 28.31 34.4498 28.3167 34.255C28.3461 34.0668 28.3771 33.9159 28.4096 33.8023C28.4552 33.6433 28.5219 33.5394 28.6096 33.4908C28.5999 33.4389 28.5107 33.3641 28.342 33.2666C28.0694 33.1884 27.7821 33.2044 27.48 33.3144L27.0165 34.2879C26.9873 34.3041 26.9467 34.317 26.8947 34.3267C26.8655 34.3429 26.8217 34.3672 26.7632 34.3996L26.7437 34.4678C26.7371 34.4905 26.7241 34.536 26.7046 34.6041C26.7143 34.6561 26.7207 34.7194 26.7239 34.794C26.8147 34.8201 26.9039 34.8948 26.9915 35.0183L26.8061 35.4077C26.715 35.5537 26.6906 35.6819 26.7327 35.7923L26.4698 35.68L26.3626 35.7968L26.4257 35.9624C26.4678 36.0728 26.4824 36.1508 26.4693 36.1962L25.9474 37.116L25.9324 37.5542C25.9128 37.6224 25.8852 37.6759 25.8495 37.7149L25.7324 37.8657C25.7226 37.9858 25.7062 38.1286 25.6833 38.2942C25.667 38.437 25.6474 38.5912 25.6245 38.7567C25.6114 38.8021 25.5026 38.8816 25.298 38.995C25.0511 39.1701 24.9277 39.2576 24.9277 39.2576C24.9016 39.3485 24.9616 39.4394 25.1076 39.5304C25.2601 39.5988 25.3363 39.6329 25.3363 39.6329L24.7749 41.2052L24.6676 41.322C24.6352 41.2635 24.5639 41.1693 24.4536 41.0393L24.2394 41.0148C24.1647 41.018 24.1047 41.013 24.0592 41L23.597 40.6831C23.597 40.6831 23.545 40.6928 23.4411 40.7121C23.3372 40.7315 23.2739 40.7379 23.2512 40.7314C22.9493 40.6695 22.7449 40.6108 22.6378 40.5555C22.5989 40.5198 22.5405 40.4662 22.4627 40.3947C22.3848 40.3232 22.2989 40.2371 22.2048 40.1364L22.1026 40.107C21.9661 40.24 21.8524 40.2935 21.7616 40.2674L21.382 40.0479C21.3527 40.0641 21.3154 40.0657 21.27 40.0527C21.2245 40.0397 21.1758 40.038 21.1239 40.0477C20.9421 39.9956 20.8741 39.89 20.9197 39.731C21.0074 39.6824 21.1195 39.5916 21.2559 39.4586C21.2462 39.4067 21.2707 39.2784 21.3293 39.074C21.3424 39.0286 21.3554 38.9831 21.3684 38.9377C21.4107 38.876 21.4562 38.803 21.505 38.7187L21.6513 38.4656C21.6578 38.4429 21.6708 38.3975 21.6904 38.3293C21.7099 38.2612 21.7246 38.167 21.7345 38.0469L21.7836 37.6185C22.1125 36.5572 22.4184 35.7476 22.7013 35.1895L22.8915 34.9121C22.9111 34.844 22.9192 34.7726 22.9161 34.6979L22.9065 34.4739C22.9131 34.4512 22.9521 34.4009 23.0236 34.323C22.9977 34.2419 23.0237 34.151 23.1017 34.0504L23.3162 33.8169C23.3227 33.7942 23.3325 33.7601 23.3455 33.7147C23.3585 33.6692 23.3667 33.5978 23.3701 33.5004L23.3899 33.1742C23.3964 33.1515 23.4728 33.0136 23.6191 32.7605C23.7654 32.5075 23.8532 32.3728 23.8824 32.3566C23.8307 32.1942 23.813 32.0417 23.8293 31.8988C23.8878 31.8664 23.9462 31.834 24.0047 31.8016C24.0632 31.7692 24.1249 31.7254 24.1899 31.6703C24.229 31.534 24.2031 31.3668 24.1124 31.1687L25.3331 27.6833C25.3916 27.6509 25.4533 27.6072 25.5183 27.552C25.606 27.5034 25.6823 27.4516 25.7473 27.3964C25.7311 27.3672 25.6889 27.3428 25.6208 27.3233L25.6944 26.6806C25.753 26.4761 25.8067 26.3317 25.8555 26.2474L25.8508 26.1354C25.88 26.1192 25.9303 26.0721 26.0018 25.9943L26.0702 25.7558C26.0833 25.7103 26.0849 25.6616 26.0752 25.6097C26.0883 25.5642 26.098 25.5302 26.1046 25.5074C26.1923 25.4588 26.2897 25.3761 26.397 25.2594L26.3391 24.6896L26.4563 24.2807C26.4986 24.219 26.5555 24.1493 26.627 24.0715C26.6985 23.9936 26.7732 23.9044 26.8512 23.8039C26.8577 23.7811 26.8496 23.7665 26.8269 23.76C26.8334 23.7373 26.8399 23.7146 26.8464 23.6919C26.866 23.6237 26.8969 23.5588 26.9392 23.4972C27.0041 23.442 27.061 23.3723 27.1098 23.2879C27.0612 23.2002 27.0223 23.0785 26.9933 22.9226L27.1544 22.4894C27.1804 22.3985 27.3396 22.2721 27.6319 22.11C27.895 21.9642 28.0347 21.8199 28.0511 21.6771L27.4137 21.1992C27.4917 21.0987 27.5794 21.0501 27.6768 21.0534L27.8724 20.1138C27.8369 19.9807 27.8256 19.8914 27.8386 19.846C28.0918 19.8202 28.2493 19.8285 28.3109 19.8707C28.3564 19.8838 28.4228 19.952 28.5104 20.0755C28.5752 20.1924 28.653 20.2639 28.7439 20.2899C28.8024 20.2575 28.8722 20.2284 28.9534 20.2025C29.0573 20.1831 29.1579 20.1751 29.2553 20.1784C29.2877 20.2369 29.3396 20.3132 29.4109 20.4074C29.5115 20.4854 29.6088 20.5748 29.7028 20.6755L29.776 20.549L30.034 20.5492C30.1672 20.5137 30.2418 20.5105 30.2581 20.5397C30.3035 20.5527 30.3862 20.6502 30.5061 20.8321C30.6195 21.0367 30.699 21.1456 30.7444 21.1586C30.7898 21.1716 30.9084 21.1441 31.1 21.0762C31.2266 21.0633 31.3272 21.0553 31.4019 21.0521C31.4993 21.0554 31.5674 21.075 31.6063 21.1107L31.7329 21.1839C31.7329 21.1839 31.7848 21.1742 31.8887 21.1548C31.9472 21.1224 31.9991 21.1127 32.0446 21.1257C32.1354 21.1518 32.2278 21.3012 32.3217 21.574C32.3671 21.587 32.437 21.5579 32.5312 21.4866C32.6189 21.4379 32.6708 21.4283 32.687 21.4575L33.1638 21.8524C33.2093 21.8654 33.2547 21.8784 33.3002 21.8914C33.3521 21.8818 33.4041 21.8721 33.456 21.8624L33.5678 22.1157L34.2541 22.4231C34.2703 22.4524 34.2865 22.4816 34.3027 22.5108C34.3189 22.5401 34.3464 22.5725 34.3854 22.6083C34.7196 22.7287 34.9938 22.8442 35.208 22.9548L35.7041 23.5396C35.7041 23.5396 35.7138 23.5916 35.7332 23.6955L35.7234 23.7295C35.6778 23.8886 35.749 24.0688 35.9371 24.2702L36.3944 24.7333L36.3065 25.04L36.3694 25.4637C36.3076 25.5935 36.2311 25.7313 36.1401 25.8773C36.0556 26.0006 35.9678 26.1353 35.8768 26.2813C35.8703 26.304 35.8784 26.3186 35.9011 26.3251L36.1203 26.2036C36.2372 26.1388 36.3298 26.1161 36.3979 26.1357L36.4563 26.1893C36.4725 26.2185 36.4757 26.2932 36.4658 26.4133C36.456 26.5334 36.4445 26.7022 36.4313 26.9197L36.4846 27.1194L36.3869 27.4601L36.2554 27.5331C36.2422 27.7505 36.221 27.8674 36.1918 27.8836C36.1171 27.8868 36.0294 27.9354 35.9287 28.0294C35.9287 28.0294 35.9449 28.0587 35.9773 28.1171C35.9935 28.1464 36.0697 28.1805 36.206 28.2196L36.1865 28.2878C36.1735 28.3332 36.1182 28.4403 36.0206 28.609L35.9866 28.5992C35.9638 28.5927 35.907 28.6624 35.8159 28.8084C35.7249 28.9544 35.7021 29.0339 35.7475 29.047C35.8157 29.0665 35.879 29.0601 35.9375 29.0277C35.9732 28.9888 36.0008 28.9352 36.0204 28.8671C36.0399 28.7989 36.0432 28.7875 36.0302 28.833L35.8495 29.3344C35.8203 29.3506 35.7699 29.3976 35.6984 29.4754C35.6724 29.5663 35.6252 29.688 35.5569 29.8405C35.5113 29.9995 35.4478 30.178 35.3664 30.376L35.1081 30.6338C35.0171 30.7798 34.9309 30.9518 34.8495 31.1497L34.8152 31.398C34.786 31.4142 34.7681 31.4337 34.7616 31.4564C34.7551 31.4791 34.734 31.5099 34.6982 31.5489C34.5908 31.8377 34.4267 32.0242 34.2059 32.1084L34.1668 32.2447C34.1538 32.2901 34.1261 32.3436 34.0839 32.4053C34.0708 32.4507 34.0432 32.5043 34.0009 32.5659C33.8905 32.608 33.5104 32.9047 32.8606 33.4559L32.5148 33.5043C32.359 33.5334 32.2388 33.6095 32.1543 33.7328C32.1899 33.8659 32.2043 34.0299 32.1976 34.2247C32.152 34.3837 32.0725 34.4469 31.9589 34.4143C31.8226 34.3753 31.7512 34.3671 31.7446 34.3898C31.7251 34.4579 31.7948 34.5148 31.9539 34.5604C32.0674 34.593 32.1047 34.6774 32.0656 34.8137L31.9143 35.2129C31.4858 35.1638 31.2618 35.1733 31.2423 35.2415C31.2292 35.2869 31.4548 35.4007 31.9188 35.583C31.8896 35.5992 31.8262 35.6916 31.7286 35.8603L31.8697 36.0114L31.8299 36.922L31.8978 37.1996C31.7062 37.2676 31.5243 37.3875 31.3521 37.5594L31.3811 37.7153C31.4752 37.816 31.5448 37.9589 31.5901 38.144C31.616 38.2252 31.6175 38.3485 31.5946 38.514L31.7843 38.7528C31.7713 38.7983 31.755 38.8551 31.7354 38.9232C31.7159 38.9914 31.7077 39.0628 31.7109 39.1374C31.6751 39.1764 31.6312 39.2867 31.5791 39.4684C31.6277 39.5561 31.6357 39.6568 31.6032 39.7704L31.4563 40.5396C31.4726 40.5688 31.4822 40.6208 31.4854 40.6954C31.4886 40.7701 31.4853 40.8675 31.4754 40.9876C31.3292 41.0686 31.2431 41.1546 31.2171 41.2454C31.1553 41.3752 31.1812 41.4564 31.2948 41.489C31.3175 41.4955 31.3808 41.4891 31.4847 41.4697L31.3526 42.0588C31.3526 42.0588 31.3913 42.3526 31.4687 42.9402C31.4849 42.9695 31.4767 43.0409 31.4441 43.1545C31.3725 43.4044 31.2458 43.5033 31.064 43.4511C30.8596 43.3925 30.733 43.3194 30.6844 43.2317C30.6423 43.1212 30.6099 43.0628 30.5872 43.0563C30.4475 43.1146 30.2544 43.1452 30.0076 43.1482ZM32.2233 22.689C32.259 22.6501 32.2607 22.6014 32.2283 22.5429C32.1959 22.4845 32.1504 22.4714 32.092 22.5038C32.0789 22.5493 32.1227 22.611 32.2233 22.689ZM27.884 23.2887L28.0496 23.2255C28.0562 23.2028 28.0107 23.1898 27.9133 23.1864C27.8906 23.1799 27.8808 23.214 27.884 23.2887ZM28.2148 23.6785C28.2764 23.7208 28.3543 23.7063 28.4485 23.6349C28.4161 23.5765 28.3886 23.544 28.3659 23.5375C28.2977 23.5179 28.2473 23.565 28.2148 23.6785ZM34.4408 25.7589C34.5024 25.8011 34.5803 25.7866 34.6746 25.7153C34.6584 25.686 34.6275 25.6649 34.5821 25.6519C34.5139 25.6323 34.4668 25.668 34.4408 25.7589ZM29.8055 30.4778L30.2146 30.337L30.6772 30.3958L30.7503 30.2693L30.7506 30.0112C30.7798 29.995 30.8237 29.9707 30.8821 29.9383C30.9633 29.9124 31.0591 29.8784 31.1695 29.8363C31.2183 29.752 31.3092 29.692 31.4424 29.6564C31.5075 29.4292 31.636 29.1096 31.828 28.6975C31.854 28.6066 31.8866 28.493 31.9257 28.3567C31.9875 28.2269 32.0525 28.0858 32.1209 27.9333C32.1566 27.8944 32.1924 27.8554 32.2281 27.8165C32.2704 27.7549 32.3159 27.6819 32.3647 27.5975L32.3356 27.4417C32.3162 27.3378 32.3065 27.2858 32.3065 27.2858C32.3033 27.2112 32.318 27.117 32.3506 27.0034C32.3702 26.9353 32.393 26.8558 32.419 26.7649C32.4678 26.6805 32.5198 26.5848 32.5751 26.4778L32.7362 26.0445L32.7558 25.9764C32.8209 25.7492 32.6474 25.5396 32.2353 25.3477L31.8119 25.1525L31.4566 24.9769C31.3657 24.9509 31.2602 24.9329 31.1401 24.923C31.0492 24.897 30.9438 24.879 30.8236 24.8692C30.6743 24.8755 30.5201 24.9419 30.3609 25.0684L30.2975 25.1608C30.1513 25.2419 30.0392 25.3326 29.9612 25.4332C29.9547 25.4559 29.953 25.5046 29.9562 25.5793C29.9886 25.6378 29.9999 25.727 29.99 25.8471L30.0189 26.2611C29.9604 26.2935 29.8662 26.3648 29.7362 26.4751C29.6875 26.5594 29.6273 26.6405 29.5558 26.7184C29.5071 26.8027 29.4437 26.8952 29.3657 26.9957C29.3657 26.9957 29.3997 27.0915 29.4676 27.2831C29.5291 27.4974 29.5599 27.6046 29.5599 27.6046C29.5111 27.6889 29.451 27.77 29.3795 27.8479C29.3372 27.9095 29.2884 27.9939 29.2331 28.101L29.0963 28.578L28.8961 29.1476L28.8668 29.2498C28.8082 29.4543 28.8194 29.6296 28.9004 29.7757C28.9263 29.8569 28.9749 29.9446 29.0462 30.0388C29.069 30.0453 29.1355 30.0275 29.2459 29.9854C29.3336 29.9368 29.3888 29.9158 29.4116 29.9223C29.4797 29.9418 29.5883 30.1205 29.7373 30.4582L29.8055 30.4778ZM33.2554 27.9636C33.3917 28.0027 33.6223 27.8844 33.9472 27.6088C33.8986 27.5211 33.8727 27.4399 33.8695 27.3652L33.5922 27.1751C33.5013 27.149 33.3682 27.1846 33.1928 27.2818C33.1406 27.4635 33.1615 27.6908 33.2554 27.9636ZM26.9019 26.8424C26.9635 26.8847 27.0414 26.8702 27.1357 26.7988C27.1032 26.7404 27.0757 26.7079 27.053 26.7014C26.9848 26.6818 26.9344 26.7288 26.9019 26.8424ZM26.8401 30.4019C26.8693 30.3857 26.8904 30.3549 26.9034 30.3095C26.923 30.2413 26.8873 30.1942 26.7964 30.1681C26.7542 30.2298 26.7687 30.3077 26.8401 30.4019ZM29.3472 31.0471C29.3861 31.0828 29.464 31.0683 29.581 31.0035C29.5648 30.9742 29.5226 30.9499 29.4544 30.9303C29.3863 30.9108 29.3505 30.9497 29.3472 31.0471ZM31.5903 32.8704L31.712 32.8315C31.7251 32.7861 31.7235 32.7488 31.7073 32.7195L31.5903 32.8704ZM27.3836 32.3648C27.4193 32.3259 27.421 32.2772 27.3886 32.2187C27.3789 32.1668 27.3302 32.1651 27.2425 32.2137C27.2229 32.2819 27.27 32.3322 27.3836 32.3648ZM29.9 33.4921C29.9616 33.5343 30.0217 33.5392 30.0801 33.5068C30.1094 33.4906 30.1143 33.4306 30.0949 33.3267C30.0495 33.3137 29.9845 33.3688 29.9 33.4921ZM30.8421 36.1224C30.8779 36.0835 30.8796 36.0348 30.8471 35.9764C30.8309 35.9471 30.7709 35.9422 30.667 35.9616C30.6475 36.0297 30.7058 36.0834 30.8421 36.1224ZM28.9895 38.4677C29.035 38.4808 29.1129 38.4662 29.2233 38.4241C29.3272 38.4048 29.3905 38.3983 29.4132 38.4048L29.4473 38.4146L29.5646 38.0057L29.1849 37.7862C29.1524 37.8998 29.1442 37.9712 29.1604 38.0004C29.1604 38.0004 29.1262 38.0767 29.0579 38.2292C29.0222 38.2681 28.9913 38.333 28.9652 38.4239C28.9587 38.4466 28.9668 38.4612 28.9895 38.4677ZM23.2058 37.2887C23.3616 37.2596 23.4493 37.211 23.4689 37.1429C23.4949 37.052 23.4382 36.9497 23.2987 36.8359L23.0652 36.6215L22.9775 36.6701C22.9969 36.774 23.0276 36.8811 23.0697 36.9915C23.1183 37.0792 23.1637 37.1783 23.2058 37.2887ZM22.4784 39.1822C22.5142 39.1433 22.5158 39.0946 22.4834 39.0361C22.4737 38.9842 22.425 38.9825 22.3373 39.0311C22.3178 39.0993 22.3648 39.1496 22.4784 39.1822ZM23.3694 39.2902L23.2672 39.2609C23.2834 39.2901 23.3012 39.3567 23.3206 39.4606L23.3694 39.2902ZM41.5122 46.4471L41.269 46.2667C40.9866 46.1366 40.7238 46.0244 40.4804 45.93C40.2532 45.8648 40.052 45.7949 39.8768 45.72L39.5847 45.71L38.8254 45.271L38.4894 45.2853L37.5744 44.8754L37.0535 44.7629C37.008 44.7499 36.9593 44.7482 36.9074 44.7579L36.7613 44.7529L35.3887 44.1381L35.1306 44.1378C35.0917 44.1021 35.0301 44.0598 34.9457 44.011C34.8841 43.9688 34.8111 43.9232 34.7267 43.8745L34.6049 43.9133C34.566 43.8776 34.4557 43.8336 34.2739 43.7815L34.196 43.7961L33.5826 43.6202C33.2419 43.5225 33.1609 43.2903 33.3398 42.9236L33.535 42.5002C33.6033 42.3476 33.6505 42.226 33.6766 42.1351C33.7092 42.0215 33.7352 41.9306 33.7547 41.8625C33.7905 41.8235 33.8522 41.7798 33.9399 41.7312C34.0341 41.6598 34.177 41.5902 34.3686 41.5222L34.3882 41.454L34.0669 41.2882L34.0719 41.1421C34.1175 40.9831 34.1988 40.8712 34.3157 40.8063C34.5042 40.6637 34.6293 40.5275 34.6911 40.3977C34.584 40.3424 34.5305 40.2287 34.5307 40.0567L34.536 39.6525C34.536 39.6525 34.6466 39.3523 34.8679 38.752L35.0772 38.9226C35.1064 38.9064 35.1373 38.8415 35.1699 38.7279L35.2285 38.5234C35.1799 38.4358 35.1426 38.3513 35.1167 38.2701L35.1022 38.1922C35.1152 38.1468 35.164 38.0624 35.2485 37.9391C35.3331 37.8159 35.3753 37.7542 35.3753 37.7542C35.4014 37.6633 35.3787 37.5708 35.3074 37.4766C35.3335 37.3857 35.3888 37.2786 35.4733 37.1554C35.4733 37.1554 35.4603 37.1148 35.4344 37.0336C35.454 36.9654 35.4751 36.9346 35.4978 36.9411C35.5077 36.821 35.5549 36.6993 35.6394 36.5761C35.7401 36.482 35.7905 36.435 35.7905 36.435L35.82 36.0747C35.8299 35.9546 35.83 35.8686 35.8203 35.8166C35.8171 35.7419 35.8188 35.6932 35.8253 35.6705C35.8383 35.6251 35.9033 35.57 36.0202 35.5052C36.1372 35.4403 36.2021 35.3852 36.2152 35.3398C36.2152 35.3398 36.212 35.2651 36.2056 35.1158C36.157 35.0281 36.136 34.9729 36.1425 34.9502L36.479 34.4197C36.3784 34.3417 36.3948 34.1989 36.5281 33.9912L36.7476 33.6116C36.7574 33.4915 36.7608 33.3942 36.7576 33.3195C36.7771 33.2513 36.7934 33.1945 36.8064 33.1491L37.0114 32.6916L37.2502 32.5019C37.2405 32.4499 37.2325 32.3493 37.2261 32.2L37.4165 31.6645C37.3875 31.5087 37.3762 31.4194 37.3827 31.3967L37.8214 30.8955C37.8214 30.8955 37.8133 30.8809 37.7971 30.8517C37.8036 30.829 37.8021 30.7916 37.7924 30.7397C37.8119 30.6715 37.8347 30.592 37.8608 30.5011C37.9161 30.3941 37.9779 30.2643 38.0462 30.1118L38.0953 29.6833C38.1115 29.7125 38.1831 29.5487 38.31 29.1917L38.3005 28.9677C38.2908 28.9157 38.2778 28.8751 38.2616 28.8459C38.2682 28.8232 38.2747 28.8005 38.2812 28.7778C38.3169 28.7388 38.3527 28.6999 38.3884 28.661C38.4242 28.6221 38.4518 28.5685 38.4714 28.5004L38.8424 27.4635L39.6775 24.9371C39.8693 24.6971 39.9814 24.5203 40.014 24.4067L40.0288 24.2265C40.0418 24.1811 40.0402 24.1437 40.024 24.1145C40.0078 24.0853 40.003 24.0593 40.0095 24.0366L40.0927 23.6179C40.1057 23.5725 40.1869 23.4605 40.3364 23.2821C40.4208 23.3309 40.5165 23.3829 40.6236 23.4382C40.7372 23.4708 40.8443 23.5261 40.9448 23.6041C40.9934 23.6918 41.0761 23.7893 41.1929 23.8965C41.2156 23.903 41.2741 23.8706 41.3683 23.7993C41.456 23.7507 41.5225 23.7329 41.568 23.7459L41.7333 23.9408C41.8436 24.0708 42.0285 24.1976 42.2881 24.3212C42.3596 24.2433 42.4246 24.1882 42.483 24.1558L42.7654 24.1999C42.8628 24.2032 42.9456 24.2147 43.0137 24.2342L43.1207 24.3755C43.1531 24.434 43.218 24.4649 43.3154 24.4682L43.6757 24.4978C43.7731 24.5011 43.8445 24.5093 43.8899 24.5224C43.9354 24.5354 43.9695 24.5452 43.9922 24.5517L44.5567 24.8979C44.6087 24.8882 44.6573 24.8899 44.7028 24.9029C44.7774 24.8998 44.8635 24.8999 44.9609 24.9032L45.248 25.0593C45.2447 25.1567 45.2998 25.2217 45.4134 25.2542C45.4361 25.2607 45.5027 25.2429 45.6131 25.2008C45.73 25.136 45.7933 25.1296 45.803 25.1816C45.803 25.1816 45.8646 25.2238 45.9879 25.3083C46.0464 25.2759 46.113 25.2581 46.1876 25.255L46.4066 25.3915C46.4455 25.4273 46.4731 25.4597 46.4893 25.489C46.5282 25.5247 46.559 25.5459 46.5818 25.5524L46.7619 25.5672C46.7489 25.6126 46.765 25.7278 46.8103 25.9129C46.8753 25.8578 46.9013 25.7669 46.8884 25.6403L47.1904 25.6163C47.2293 25.652 47.2877 25.7056 47.3655 25.7771C47.4434 25.8486 47.5326 25.9234 47.6331 26.0014C47.6201 26.0468 47.6379 26.1134 47.6865 26.2011L47.7887 26.2304L48.0616 26.0505C48.1135 26.0408 48.1736 26.0457 48.2417 26.0652C48.3326 26.0913 48.4267 26.106 48.5241 26.1093L48.7529 26.2118L48.3134 27.4872C48.1738 27.5455 48.0877 27.6314 48.0551 27.745L48.011 28.0274L47.4738 29.6435C47.4282 29.8026 47.2805 29.8462 47.0306 29.7746C46.982 29.6869 46.9269 29.6219 46.8652 29.5797C46.7809 29.5309 46.6592 29.4837 46.5001 29.4381C46.3476 29.3698 46.1659 29.3177 45.9549 29.2818C45.9095 29.2687 45.8527 29.2524 45.7845 29.2329C45.7229 29.1906 45.6385 29.1419 45.5315 29.0866L45.2345 28.9646L44.6698 28.8764L44.1002 28.6762C44.0548 28.6632 44.0126 28.6388 43.9737 28.603L43.8472 28.5299C43.6719 28.455 43.5275 28.4013 43.4139 28.3688C43.3231 28.3427 43.2663 28.3264 43.2436 28.3199C43.1722 28.2257 43.0911 28.1656 43.0003 28.1395C42.9548 28.1265 42.8623 28.1491 42.7226 28.2074C42.583 28.2657 42.4905 28.2883 42.445 28.2753C42.4255 28.3435 42.4011 28.3856 42.3719 28.4018L42.3571 28.582C42.3668 28.6339 42.3618 28.694 42.3423 28.7622C42.3293 28.8076 42.3211 28.879 42.3177 28.9764C42.0645 29.0021 41.8451 29.2957 41.6595 29.8571L41.7861 29.9303L42.0246 29.9987C42.0408 30.0279 42.0359 30.088 42.0098 30.1788C41.9838 30.2697 41.9123 30.3476 41.7953 30.4124C41.6492 30.4934 41.5761 30.5339 41.5761 30.5339C41.6084 30.7644 41.6033 30.9965 41.5608 31.2302C41.5478 31.2756 41.4731 31.3648 41.3366 31.4978C41.2001 31.6308 41.1156 31.7541 41.083 31.8676L41.0442 31.7459L40.9224 31.7847L40.8931 31.8869C40.9255 31.9454 41.0099 31.9942 41.1462 32.0333C41.1331 32.0787 41.1169 32.1355 41.0973 32.2037C41.107 32.2556 41.1134 32.3189 41.1166 32.3936C41.1781 32.6079 41.2543 32.7281 41.3451 32.7541L41.613 32.7203C41.6292 32.7495 41.6616 32.808 41.7102 32.8957C41.788 32.9672 41.8383 33.0062 41.861 33.0127C41.8448 32.9835 41.9553 32.9414 42.1923 32.8864C42.3902 32.9678 42.5412 32.9987 42.6451 32.9794C42.7585 33.184 42.8493 33.2961 42.9174 33.3156L43.0537 33.3547L43.3216 33.3209C43.3443 33.3274 43.3816 33.3258 43.4336 33.3161C43.4855 33.3064 43.5375 33.2967 43.5894 33.287L43.8134 33.2775C43.8816 33.2971 43.9481 33.3653 44.0129 33.4822C44.0939 33.6284 44.1458 33.7047 44.1685 33.7112C44.2497 33.6853 44.3617 33.6806 44.5045 33.6969C44.5045 33.6969 44.498 33.7197 44.4849 33.7651C44.5012 33.7943 44.4995 33.843 44.4799 33.9112C44.4539 34.002 44.4034 34.1351 44.3286 34.3103C44.283 34.4693 44.213 34.6706 44.1186 34.9139L44.0114 35.0307C44.0146 35.1054 43.9803 35.2676 43.9087 35.5175C43.8729 35.5565 43.8274 35.6295 43.7721 35.7365C43.7168 35.8436 43.6827 35.9199 43.6697 35.9653L43.6501 36.0335C43.6371 36.0789 43.6272 36.199 43.6206 36.3938L43.5815 36.5301C43.5359 36.6891 43.4513 36.8124 43.3279 36.8999C43.0356 37.0619 42.8667 37.1364 42.8213 37.1234L42.5439 36.9332C42.4985 36.9202 42.4384 36.9153 42.3637 36.9185L42.1495 36.8939C42.1171 36.8355 42.0701 36.7851 42.0084 36.7428C41.976 36.6844 41.9177 36.6307 41.8333 36.582C41.7813 36.5917 41.718 36.5981 41.6434 36.6013C41.5979 36.5882 41.5265 36.5801 41.4291 36.5767L41.0836 36.367C40.876 36.2337 40.7381 36.1573 40.6699 36.1377L40.3096 36.1082C40.2642 36.0952 40.2302 35.9994 40.2076 35.8208C40.305 35.8241 40.3781 35.7836 40.4269 35.6993L40.4609 35.709C40.5064 35.7221 40.5745 35.7416 40.6654 35.7677C40.7563 35.7937 40.8439 35.8311 40.9283 35.8799L41.0014 35.7534L41.021 35.6852C41.0405 35.6171 41.0179 35.5245 40.953 35.4076C40.9303 35.4011 40.8849 35.3881 40.8167 35.3685C40.7778 35.3328 40.7162 35.2905 40.6318 35.2417C40.5734 35.2741 40.5246 35.3585 40.4855 35.4948C40.4239 35.4525 40.3394 35.4898 40.2322 35.6066C40.1998 35.5481 40.1105 35.5594 39.9643 35.6404L39.8959 35.8789C39.8375 35.9113 39.7692 35.9778 39.6912 36.0784C39.5127 36.1009 39.4071 36.169 39.3745 36.2826C39.3745 36.2826 39.3907 36.3118 39.4231 36.3703C39.4393 36.3995 39.4409 36.4369 39.4279 36.4823L39.3888 36.6186C39.3693 36.6867 39.3497 36.7549 39.3302 36.8231C39.3106 36.8912 39.2732 36.9788 39.2179 37.0859L39.2811 37.2515C39.1966 37.3748 38.9447 37.6099 38.5256 37.9569L38.5061 38.025C38.48 38.1159 38.4913 38.2052 38.5399 38.2929C38.6245 38.1696 38.7917 38.0578 39.0418 37.9574C39.1001 38.097 39.113 38.2236 39.0804 38.3372C39.0739 38.3599 38.8985 38.4571 38.5542 38.6289L38.6221 38.9065L38.7682 38.9115C38.8591 38.9376 38.885 39.0187 38.8459 39.1551C38.7874 39.1875 38.7046 39.262 38.5973 39.3788C38.5258 39.4567 38.4771 39.541 38.451 39.6319L38.5239 39.7634C38.5174 39.7861 38.4069 39.9143 38.1924 40.1478L38.2165 40.4497C38.1839 40.5633 38.0849 40.6087 37.9193 40.5858C37.9355 40.615 37.9891 40.6427 38.0799 40.6687L38.0847 40.7807C37.997 40.8293 37.932 40.8845 37.8898 40.9461C37.8961 41.0954 37.9528 41.1977 38.0599 41.253C38.1735 41.2856 38.2611 41.323 38.3227 41.3653C38.511 41.3947 38.696 41.4354 38.8777 41.4875C39.0595 41.5397 39.2526 41.595 39.457 41.6536C39.4537 41.751 39.4975 41.8128 39.5883 41.8388C39.6338 41.8518 39.7653 41.7789 39.983 41.6201C40.1193 41.6592 40.1743 41.8102 40.1481 42.0731L40.2503 42.1024C40.2699 42.0342 40.2975 41.9807 40.3333 41.9418C40.5118 41.9192 40.7569 41.9649 41.0684 42.0788L41.4285 42.3665C41.422 42.3892 41.5096 42.4266 41.6913 42.4787C41.7822 42.5048 41.8357 42.5324 41.8519 42.5616L42.3243 42.5864C42.3924 42.606 42.4557 42.5996 42.5142 42.5671C42.5434 42.5509 42.6262 42.5624 42.7625 42.6015C42.9312 42.699 42.983 42.8614 42.9178 43.0886C42.8918 43.1794 42.7893 43.4082 42.6104 43.7749C42.6104 43.7749 42.5812 43.7911 42.5227 43.8235C42.487 43.8624 42.4626 43.9046 42.4496 43.95L42.2053 44.8019C42.2053 44.8019 42.1306 44.8051 41.9813 44.8114C42.0491 45.1751 42.0537 45.4591 41.9951 45.6636C41.9625 45.7772 41.8618 45.8712 41.6929 45.9457L41.6681 46.4181C41.5642 46.4374 41.5122 46.4471 41.5122 46.4471ZM47.135 27.4812L47.1691 27.491C47.3054 27.53 47.4418 27.4831 47.5783 27.3501C47.5362 27.2397 47.4924 27.178 47.447 27.165L46.9697 27.2863C47.0118 27.3967 47.0669 27.4616 47.135 27.4812ZM46.3165 28.0209C46.323 27.9982 46.3019 27.943 46.2533 27.8553C46.2533 27.8553 46.2241 27.8715 46.1656 27.9039L46.3165 28.0209ZM40.8978 26.9834L41.1756 26.6574L41.0248 26.5404L40.9178 26.3991C40.7554 26.4509 40.6515 26.5563 40.6059 26.7153C40.7161 26.8453 40.8134 26.9347 40.8978 26.9834ZM39.3032 29.329C39.3163 29.2835 39.3179 29.2349 39.3082 29.1829C39.3213 29.1375 39.3229 29.0888 39.3133 29.0368L39.0747 28.9684L39.0016 29.095L39.1085 29.2363L39.3032 29.329ZM37.3389 31.421C37.3519 31.3755 37.3665 31.3674 37.3827 31.3967L37.3389 31.421ZM38.964 32.6983C39.1297 32.5491 39.1461 32.4063 39.0131 32.2698C38.9839 32.286 38.9303 32.3444 38.8523 32.445C38.8327 32.5131 38.87 32.5976 38.964 32.6983ZM38.0387 32.8386L38.2194 32.3373L38.1464 32.2057L37.9079 32.1373L37.8445 32.2298C37.8445 32.2298 37.859 32.3077 37.8881 32.4635C37.927 32.4993 37.9075 32.5674 37.8295 32.668C37.8976 32.6875 37.9674 32.7444 38.0387 32.8386ZM38.2277 33.8517C38.2407 33.8062 38.257 33.7494 38.2765 33.6813C38.296 33.6131 38.327 33.5482 38.3692 33.4866C38.3465 33.4801 38.2913 33.5011 38.2036 33.5497C38.184 33.6179 38.1921 33.7185 38.2277 33.8517ZM42.3364 34.9561L42.3705 34.9658C42.4159 34.9789 42.536 34.9887 42.7308 34.9954L42.6093 34.7762C42.5834 34.695 42.4973 34.6949 42.3512 34.7759C42.3251 34.8668 42.3202 34.9268 42.3364 34.9561ZM38.0245 37.5181C38.0537 37.5019 38.0441 37.45 37.9954 37.3623C37.95 37.3493 37.9127 37.3508 37.8834 37.3671L38.0245 37.5181ZM37.6096 38.5793C37.655 38.5923 37.7524 38.5956 37.9018 38.5893L37.8777 38.2874C37.7803 38.284 37.7218 38.3164 37.7023 38.3846L37.6096 38.5793ZM36.0413 38.904C36.0544 38.8586 36.0706 38.8018 36.0902 38.7337C36.1097 38.6655 36.1374 38.612 36.1731 38.573C36.1569 38.5438 36.105 38.5535 36.0173 38.6021L36.0413 38.904ZM35.8604 39.6635C35.8962 39.6246 35.8979 39.5759 35.8654 39.5174C35.833 39.459 35.7762 39.4427 35.6951 39.4686C35.7048 39.5205 35.7599 39.5855 35.8604 39.6635ZM34.9822 41.44C35.0765 41.3687 35.1139 41.2811 35.0945 41.1772L34.9582 41.1381L34.8314 41.323C34.8638 41.3815 34.9141 41.4205 34.9822 41.44ZM39.6493 44.3271C39.6623 44.2817 39.6526 44.2298 39.6202 44.1713C39.604 44.1421 39.5553 44.1404 39.4741 44.1663C39.4546 44.2344 39.513 44.2881 39.6493 44.3271ZM39.5365 45.1062L40.1792 45.1798L40.1454 44.912C40.1325 44.7853 40.058 44.7025 39.9216 44.6634L39.5856 44.6777C39.5661 44.7458 39.5466 44.814 39.527 44.8821C39.5302 44.9568 39.5334 45.0315 39.5365 45.1062ZM47.9146 48.2461L47.7054 48.0755C47.5691 48.0364 47.4587 47.9924 47.3744 47.9437L47.102 47.6074C46.9657 47.5683 46.8845 47.5942 46.8585 47.6851C46.8162 47.7467 46.761 47.7678 46.6928 47.7482L46.4593 47.5338C46.4528 47.5565 46.3895 47.5629 46.2694 47.5531C46.2338 47.4199 46.1609 47.2884 46.0506 47.1584C46.0506 47.1584 45.9873 47.1649 45.8607 47.1777C45.7829 47.1062 45.6759 46.9649 45.5397 46.7538L45.321 46.3591L45.0727 46.3248C45.063 46.2729 45.0452 46.2063 45.0193 46.1251C44.9999 46.0212 44.9805 45.9173 44.9612 45.8134C44.9742 45.768 44.9256 45.6803 44.8153 45.5503L44.8061 45.0683C44.8126 45.0455 44.785 45.0131 44.7234 44.9708C44.6941 44.987 44.6454 44.9853 44.5773 44.9658C44.5319 44.9528 44.4962 44.9057 44.4703 44.8245L44.5051 44.06C44.5085 43.9626 44.5085 43.8766 44.5054 43.8019C44.5314 43.7111 44.551 43.6429 44.564 43.5975L44.5008 43.4318C44.5139 43.3864 44.5221 43.315 44.5254 43.2176C44.5287 43.1202 44.5386 43.0001 44.555 42.8573L44.6041 42.4288C44.6919 42.2082 44.7456 42.0638 44.7652 41.9956C44.7847 41.9275 44.7993 41.9194 44.809 41.9713L45.1207 41.9132C45.0429 41.8417 44.9812 41.7994 44.9358 41.7864L45.048 41.5235L44.9265 41.3043C44.9364 41.1842 44.9462 41.0641 44.9561 40.944C44.9952 40.8077 45.0391 40.6974 45.0879 40.613L45.161 40.4865L45.3314 40.5353C45.4321 40.4413 45.502 40.3261 45.5411 40.1898L45.3417 39.9851C45.3612 39.9169 45.384 39.8374 45.4101 39.7466C45.4361 39.6557 45.4508 39.5616 45.4542 39.4642C45.5355 39.2662 45.6103 39.091 45.6787 38.9385C45.747 38.786 45.8055 38.6675 45.8543 38.5832C45.89 38.5443 45.9956 38.4762 46.171 38.379C46.1224 38.2913 46.0673 38.2263 46.0056 38.184L46.0545 38.0136C46.1422 37.965 46.2072 37.9099 46.2494 37.8483C46.3274 37.7477 46.425 37.579 46.5421 37.3421C46.5713 37.3259 46.6427 37.3341 46.7563 37.3667L46.9851 37.4692C46.9851 37.4692 47.0143 37.453 47.0728 37.4205L47.0049 37.1429C46.9594 37.1299 46.9221 37.1315 46.8929 37.1477C46.7955 37.1443 46.7224 37.1849 46.6736 37.2692C46.4984 37.1944 46.4433 37.0434 46.5085 36.8162L46.9089 35.6771C47.0746 35.528 47.19 35.3398 47.2551 35.1126L47.2604 34.7085C47.2961 34.6695 47.3238 34.616 47.3433 34.5478C47.3694 34.457 47.4068 34.3694 47.4556 34.285L47.7332 34.2171C47.6878 34.2041 47.6456 34.1797 47.6067 34.1439L47.7775 33.6766C47.8002 33.6831 47.8327 33.6556 47.875 33.5939C47.8815 33.5712 47.8362 33.4722 47.7389 33.2968L48.2025 32.3233C48.2902 32.2747 48.3551 32.2196 48.3974 32.158C48.4884 32.012 48.5778 31.9147 48.6655 31.866C48.7824 31.8012 48.8507 31.7348 48.8702 31.6666L48.8557 31.5887C48.8622 31.566 48.8785 31.5092 48.9045 31.4183C48.9306 31.3274 48.9778 31.2057 49.0461 31.0532C49.0656 30.9851 49.0738 30.9137 49.0706 30.839C49.0967 30.7481 49.1227 30.6572 49.1488 30.5664C49.2465 30.2256 49.4076 29.7924 49.6321 29.2667C49.6548 29.2732 49.6905 29.3203 49.7391 29.408L49.8073 29.4276C49.83 29.4341 49.8478 29.4146 49.8609 29.3692L49.8611 29.1111L49.8711 28.8189C49.8972 28.7281 49.9573 28.647 50.0515 28.5756C50.1554 28.5563 50.2659 28.5142 50.3828 28.4493L50.6657 27.9773C50.7599 27.906 50.9482 27.8493 51.2307 27.8074C51.1916 27.9437 51.2288 28.0281 51.3424 28.0607L51.4106 28.0803C51.5242 28.1128 51.6005 28.061 51.6396 27.9246L51.6351 27.5546L52.361 27.2095L52.4048 27.1852C52.4502 27.1983 52.5767 27.3574 52.7842 27.6628L52.828 27.6385C52.8865 27.6061 52.9222 27.5672 52.9352 27.5217C52.9808 27.3627 52.9744 27.2994 52.9159 27.3318L53.0087 27.1371L53.4176 27.2544L53.6854 27.2205C53.812 27.2077 53.8835 27.2158 53.8997 27.2451L54.0505 27.3621C54.044 27.3848 54.0342 27.4189 54.0212 27.4643C54.0082 27.5098 53.9773 27.5747 53.9285 27.659L54.0209 27.7224C54.1118 27.7485 54.1816 27.7193 54.2304 27.6349L54.2988 27.3964C54.3118 27.351 54.3135 27.3023 54.3038 27.2503C54.3168 27.2049 54.3266 27.1708 54.3331 27.1481C54.4663 27.1125 54.5977 27.1256 54.7275 27.1874L55.039 27.3874L55.3993 27.4169L55.7255 27.4367C55.7937 27.4563 55.8942 27.5343 56.0272 27.6707C56.0207 27.6935 56.0856 27.7244 56.2219 27.7635L56.6308 27.8807L57.0104 28.1002C57.0266 28.1294 57.0428 28.1587 57.059 28.1879C57.0752 28.2171 57.1028 28.2496 57.1417 28.2854L57.2878 28.2904L57.39 28.3197C57.5263 28.3588 57.6933 28.591 57.8909 29.0165L58.2024 29.2164C58.2348 29.2749 58.2639 29.3447 58.2898 29.4259C58.4682 29.5754 58.5654 29.7508 58.5815 29.9521C58.5977 29.9813 58.5765 30.0982 58.5178 30.3026C58.5177 30.4747 58.5614 30.6224 58.6489 30.7459C58.6651 30.7751 58.7008 30.8222 58.7559 30.8872C58.811 30.9521 58.9002 31.0269 59.0235 31.1114C59.1012 31.355 59.1156 31.5189 59.0668 31.6033C59.0603 31.626 58.9499 31.6681 58.7356 31.7296C58.5213 31.791 58.4109 31.8331 58.4044 31.8559C58.3913 31.9013 58.3831 31.9727 58.3798 32.0701C58.383 32.1448 58.4202 32.2292 58.4916 32.3234L58.6715 32.5963C58.6942 32.6028 58.7023 32.6174 58.6958 32.6401C58.7282 32.6986 58.7346 32.7619 58.7151 32.83L58.8318 32.9373L58.6702 33.8867L58.0794 35.5612C58.0502 35.5774 58.021 35.5936 57.9917 35.6098C57.9625 35.626 57.93 35.6536 57.8943 35.6925C57.8682 35.7833 57.8275 35.8823 57.7723 35.9894C57.7397 36.103 57.6892 36.236 57.6209 36.3885L57.5137 36.5053L57.2849 36.4028C57.2103 36.406 57.0934 36.3848 56.9344 36.3392C56.8889 36.3262 56.8078 36.266 56.6911 36.1588C56.5743 36.0516 56.4932 35.9914 56.4478 35.9784C56.2822 35.9555 56.1021 35.9407 55.9073 35.9341C55.7191 35.9047 55.5194 35.872 55.3085 35.8361C55.2599 35.7484 55.2047 35.6834 55.1431 35.6412C55.0911 35.6508 54.997 35.6362 54.8607 35.5971L54.2085 35.2994C54.1275 35.1532 54.1065 35.012 54.1456 34.8757C54.1651 34.8076 54.2659 34.7135 54.4478 34.5936L54.4625 34.4134C54.4918 34.3972 54.5129 34.3664 54.5259 34.321C54.539 34.2755 54.5666 34.222 54.6089 34.1603C54.7164 33.6995 54.9165 33.216 55.2092 32.7098C55.1541 32.6448 55.0893 32.5279 55.0148 32.359C55.1868 32.3592 55.3946 32.3204 55.6382 32.2428L55.6772 32.1065L55.5848 32.0431C55.5848 32.0431 55.4744 32.0852 55.2535 32.1694L55.127 32.0962L55.2979 31.6289C55.4018 31.6095 55.4976 31.5755 55.5853 31.5269C55.6244 31.3906 55.6228 31.2672 55.5808 31.1568L55.1082 31.3901L54.8601 31.0977C54.7596 31.0197 54.6103 30.94 54.4124 30.8587C54.3831 30.8749 54.3344 30.8732 54.2663 30.8537C54.2436 30.8472 54.1917 30.7708 54.1107 30.6247L53.3605 30.9259C53.1332 31.0328 52.9707 31.1706 52.8732 31.3393C52.7369 31.3002 52.6394 31.3829 52.5808 31.5874L52.556 32.0597C52.5299 32.1505 52.4617 32.217 52.3513 32.2591C52.2507 32.1811 52.2038 32.0447 52.2104 31.8499L52.118 31.7866L52.0107 31.9033C51.9912 31.9715 52.0333 32.0819 52.137 32.2346L52.3024 32.4295C52.2633 32.5658 52.2194 32.6761 52.1706 32.7605L52.097 33.4032L51.7898 33.8314L51.6725 34.2403L51.3899 34.4543L51.3508 34.5906C51.2726 34.8632 51.1264 35.0303 50.9121 35.0918C51.003 35.1178 51.1084 35.2218 51.2283 35.4037L50.4922 36.299C50.4953 36.3736 50.4335 36.5895 50.3065 36.9464L49.5546 39.0542L49.1192 41.2158C49.0996 41.2839 48.9956 41.3893 48.8072 41.532C48.8234 41.5612 48.8364 41.6018 48.8461 41.6538C48.8785 41.7122 48.9222 41.774 48.9774 41.8389L48.9481 41.9412L48.612 41.9555C48.6055 41.9782 48.6071 42.0155 48.6168 42.0675C48.633 42.0967 48.646 42.1373 48.6556 42.1892L48.6652 42.4132C48.5028 42.465 48.3241 42.6596 48.129 42.9971C48.2133 43.0458 48.2489 43.179 48.2357 43.3964C48.2225 43.6139 48.1721 43.747 48.0844 43.7956C48.1006 43.8248 48.2223 43.872 48.4495 43.9372L48.4006 44.1075L48.2593 44.2145C48.2755 44.2438 48.3112 44.2909 48.3663 44.3558C48.4214 44.4208 48.4993 44.4923 48.5998 44.5703C48.5672 44.6839 48.5817 44.8479 48.6432 45.0622L48.7893 45.0672L48.9013 45.0624C48.9013 45.0624 48.9629 45.1047 49.0862 45.1892L49.1884 45.2185C49.302 45.2511 49.4026 45.2431 49.4903 45.1945C49.4968 45.1717 49.5374 45.1588 49.6121 45.1556C49.6706 45.1232 49.6998 45.107 49.6998 45.107L49.7096 45.0729C49.6641 45.0599 49.6414 45.0534 49.6414 45.0534L49.5294 45.0582C49.5586 45.0419 49.596 45.0404 49.6414 45.0534L49.8313 45.0341L50.0894 45.0343C50.1121 45.0409 50.1316 45.0587 50.1478 45.088C50.1413 45.1107 50.1494 45.1253 50.1721 45.1318C50.2403 45.1513 50.3133 45.1108 50.3913 45.0103C50.4498 44.9779 50.4872 44.8903 50.5036 44.7474C50.7699 44.6763 50.8674 44.5076 50.7962 44.2413C50.9815 44.024 51.1149 43.7303 51.1964 43.3603L51.7481 41.8221C51.852 41.8027 51.9624 41.7606 52.0793 41.6958C52.232 41.5921 52.3262 41.5207 52.362 41.4818C52.362 41.4818 52.3506 41.4786 52.3279 41.4721C52.3052 41.4655 52.2452 41.3746 52.148 41.1992C52.1448 41.1245 52.0962 41.0368 52.0021 40.9361L51.2963 40.6968C51.2378 40.7292 51.1859 40.7389 51.1405 40.7259L50.9653 40.565C50.9426 40.5585 50.9166 40.5634 50.8874 40.5796C50.8874 40.5796 50.876 40.5763 50.8533 40.5698L50.6732 40.555C50.6504 40.5485 50.6229 40.516 50.5905 40.4576C50.5743 40.4283 50.5321 40.4039 50.4639 40.3844C50.4347 40.4006 50.3519 40.3892 50.2156 40.3501L50.1866 40.1942L50.3086 39.8973L50.3331 39.6831L50.3527 39.6149C50.3787 39.524 50.4567 39.4235 50.5867 39.3132C50.7101 39.2257 50.7784 39.1592 50.7914 39.1138L50.7333 38.8021L50.8941 38.6269L50.8798 38.2909C50.9675 38.2423 51.1331 38.1792 51.3767 38.1015C51.3832 38.0788 51.3622 38.0236 51.3135 37.9359C51.3135 37.9359 51.247 37.9537 51.1138 37.9893L50.9435 37.9404L50.9923 37.77C51.0215 37.7538 51.0508 37.7376 51.08 37.7214C51.1158 37.6825 51.1482 37.6549 51.1775 37.6387C51.1775 37.6387 51.223 37.5657 51.314 37.4197C51.5283 37.3582 51.6582 37.334 51.7037 37.3471L51.8788 37.5079C51.9728 37.6086 52.0312 37.6623 52.0539 37.6688L52.2 37.6738C52.252 37.6641 52.312 37.669 52.3802 37.6886L53.7969 38.021C53.9267 38.0828 53.9834 38.1851 53.967 38.328L53.9715 38.698C54.0235 38.6884 54.168 38.656 54.405 38.6011C54.5804 38.5038 54.707 38.491 54.7848 38.5625L55.0622 38.7526C55.1142 38.743 55.1629 38.7446 55.2083 38.7577C55.2537 38.7707 55.3138 38.7756 55.3885 38.7724C55.4955 38.8277 55.588 38.8911 55.6658 38.9626C55.7729 39.0179 55.88 39.0732 55.9871 39.1285L56.0552 39.148C56.237 39.2001 56.4188 39.1662 56.6007 39.0463C56.7012 39.1243 56.7076 39.2736 56.6197 39.4943L56.1808 40.2535L56.2098 40.4093C56.213 40.484 56.2016 40.5668 56.1755 40.6577C56.1072 40.8102 56.0276 40.8734 55.9367 40.8473L55.8443 40.7839C55.815 40.8001 55.7939 40.831 55.7809 40.8764C55.7809 40.8764 55.7971 40.9056 55.8295 40.9641L55.9658 41.0032C55.9397 41.0941 55.8991 41.193 55.8438 41.3001C55.8112 41.4137 55.7608 41.5467 55.6924 41.6993C55.6047 41.7479 55.5398 41.803 55.4975 41.8646L55.5023 41.9766C55.4697 42.0902 55.4241 42.2492 55.3655 42.4537C55.3296 42.6647 55.2774 42.9324 55.2089 43.257C55.1212 43.3056 55.0092 43.3104 54.8729 43.2713C54.834 43.2355 54.7853 43.2339 54.7268 43.2663C54.6683 43.2987 54.6472 43.3295 54.6634 43.3587C54.6958 43.4172 54.7607 43.4481 54.8581 43.4515C54.8873 43.4352 54.9182 43.4564 54.9506 43.5148C54.9048 43.8459 54.8461 44.1364 54.7744 44.3863C54.7255 44.6427 54.6636 44.8585 54.5888 45.0338L54.3204 45.5837C54.2586 45.7135 54.2001 45.832 54.1448 45.939C54.096 46.0234 54.0619 46.0997 54.0423 46.1678L53.9203 46.4647C53.8749 46.4517 53.7661 46.4451 53.5941 46.4449C53.4512 46.4286 53.3733 46.4431 53.3603 46.4885C53.3407 46.5567 53.5095 46.6542 53.8664 46.7812L53.8273 46.9175C53.8078 46.9857 53.785 47.0652 53.7589 47.156C53.7394 47.2242 53.702 47.3118 53.6467 47.4189C53.4678 47.7855 53.3702 48.0403 53.3538 48.1831C53.3408 48.2285 53.305 48.2675 53.2466 48.2999C53.2563 48.3518 53.2448 48.4346 53.2122 48.5482L53.1829 48.6504C53.079 48.6698 52.9832 48.7038 52.8955 48.7524C52.8793 48.7232 52.8631 48.6939 52.8469 48.6647C52.8307 48.6355 52.8145 48.6062 52.7983 48.577C52.7529 48.564 52.7009 48.5737 52.6425 48.6061L52.5204 48.903L52.6129 48.9664C52.6811 48.9859 52.8223 48.965 53.0366 48.9035L53.0121 49.1177L52.7487 49.5216C52.5962 49.4533 52.4404 49.3963 52.2814 49.3507C52.1451 49.3117 52.0234 49.2645 51.9163 49.2092L51.5951 49.0433C51.6016 49.0206 51.6503 49.0223 51.7412 49.0483C51.7574 49.0776 51.8094 49.0679 51.897 49.0193L51.9604 48.9268C51.8956 48.8099 51.8097 48.7238 51.7026 48.6685C51.5434 48.7949 51.4151 48.8565 51.3177 48.8531C51.2593 48.8855 51.2235 48.9245 51.2105 48.9699C51.1293 48.9958 51.0044 48.96 50.8357 48.8624C50.7772 48.8948 50.7887 48.726 50.8702 48.356L50.9339 48.0055C50.9015 47.947 50.8398 47.9048 50.749 47.8787C50.6354 47.8461 50.564 47.838 50.5347 47.8542L50.1303 48.107C50.1011 48.1232 50.0491 48.1329 49.9745 48.1361C49.9225 48.1457 49.8592 48.1522 49.7845 48.1554C49.7196 48.2105 49.6026 48.2753 49.4338 48.3498L49.0198 48.3786C48.929 48.3526 48.8267 48.3232 48.7131 48.2907C48.5995 48.2581 48.46 48.2304 48.2944 48.2075C48.2652 48.2237 48.1986 48.2415 48.0947 48.2609C47.9908 48.2802 47.9308 48.2753 47.9146 48.2461ZM52.2996 30.2529C52.3385 30.2886 52.3872 30.2903 52.4457 30.2579C52.5042 30.2255 52.5172 30.18 52.4848 30.1216C52.4393 30.1085 52.3776 30.1523 52.2996 30.2529ZM51.3297 31.1917C51.3979 31.2113 51.5683 31.1741 51.8411 31.0802C51.7113 31.0184 51.6221 30.9437 51.5735 30.856L51.4179 30.627C51.3885 30.8152 51.3608 30.9548 51.3347 31.0457C51.3314 31.143 51.3297 31.1917 51.3297 31.1917ZM57.6582 33.0433C57.6971 33.079 57.775 33.0645 57.892 32.9997C57.8758 32.9704 57.845 32.9493 57.7995 32.9363C57.7314 32.9167 57.6843 32.9524 57.6582 33.0433ZM56.7324 33.6998C56.7681 33.6609 56.7698 33.6122 56.7374 33.5537C56.7277 33.5017 56.679 33.5001 56.5913 33.5487C56.5718 33.6168 56.6188 33.6672 56.7324 33.6998ZM55.9469 35.2816L55.981 35.2914C56.1173 35.3304 56.2504 35.2949 56.3804 35.1846C56.5167 35.2237 56.6498 35.1881 56.7798 35.0779L56.4493 34.4299L56.1423 34.6001C56.1487 34.7494 56.0835 34.9766 55.9469 35.2816ZM50.8061 33.9181L50.889 33.7575L50.8209 33.738L50.772 33.9083L50.8061 33.9181ZM50.7913 34.0983L50.8449 34.0399L50.8206 33.996L50.7231 34.0787L50.7913 34.0983ZM53.1582 38.8336C53.2524 38.7623 53.2866 38.686 53.2607 38.6048L53.0319 38.5024L52.9635 38.7409L53.1582 38.8336ZM53.0264 39.1646C53.0556 39.1484 53.1157 39.1533 53.2066 39.1794L53.2261 39.1112C53.2326 39.0885 53.2245 39.0739 53.2018 39.0674C53.2018 39.0674 53.2051 39.056 53.2116 39.0333C53.1142 39.03 53.0525 39.0737 53.0264 39.1646ZM48.3817 38.3859C48.4109 38.3697 48.4353 38.3276 48.4549 38.2594C48.4387 38.2302 48.3965 38.2058 48.3283 38.1862C48.3477 38.2901 48.3655 38.3567 48.3817 38.3859ZM47.6015 39.5636L47.6844 39.403C47.6358 39.3153 47.6181 39.1627 47.6313 38.9452C47.6704 38.8089 47.6104 38.718 47.4514 38.6724L47.3151 38.6333L47.2419 38.7598C47.2354 38.7825 47.2289 38.8052 47.2224 38.828C47.2451 38.8345 47.2532 38.8491 47.2467 38.8718L47.2514 38.9838C47.2384 39.0292 47.2221 39.086 47.2026 39.1542C47.1896 39.1996 47.1814 39.271 47.178 39.3684C47.2073 39.3522 47.2787 39.3604 47.3923 39.393L47.6015 39.5636ZM48.0295 40.1289C48.0879 40.0965 48.1204 40.0689 48.1269 40.0462C48.1465 39.978 48.0994 39.9277 47.9859 39.8951C47.9436 39.9567 47.9581 40.0347 48.0295 40.1289ZM52.7601 42.6655L52.916 42.6364L52.8771 42.5146C52.8479 42.5308 52.83 42.5503 52.8235 42.573C52.817 42.5957 52.7959 42.6266 52.7601 42.6655ZM51.3069 44.904C51.2192 44.9526 51.1542 45.0078 51.112 45.0694C51.0989 45.1148 51.1248 45.196 51.1896 45.3129L51.3069 44.904ZM44.8271 43.4516C44.8887 43.4939 44.9666 43.4794 45.0608 43.408C45.0284 43.3496 45.0009 43.3171 44.9782 43.3106C44.91 43.291 44.8596 43.338 44.8271 43.4516ZM50.128 45.4142L50.1671 45.2779C50.1509 45.2487 50.1087 45.2243 50.0406 45.2047L49.9869 45.2631C49.9739 45.3085 49.9755 45.3459 49.9917 45.3751L50.128 45.4142ZM51.9341 45.9321C51.9698 45.8932 51.9715 45.8445 51.9391 45.786C51.9067 45.7275 51.8612 45.7145 51.8028 45.7469C51.7898 45.7923 51.8335 45.8541 51.9341 45.9321ZM44.9965 44.5328C45.1231 44.5199 45.214 44.46 45.2693 44.3529C45.3051 44.314 45.3068 44.2653 45.2743 44.2068L45.1721 44.1775L44.9965 44.5328ZM50.1568 45.8281C50.1829 45.7372 50.1732 45.6853 50.1278 45.6723L50.0012 45.5991L49.894 45.7159L50.1568 45.8281ZM49.1817 47.1712C49.2725 47.1972 49.3716 47.1519 49.4788 47.0351L49.4302 46.9474C49.2647 46.9245 49.1527 46.9293 49.0942 46.9617C49.1104 46.9909 49.1266 47.0201 49.1428 47.0494C49.159 47.0786 49.172 47.1192 49.1817 47.1712Z" fill="#052930"/>
<defs>
<linearGradient id="paint0_linear_4020_428" x1="48.2733" y1="8.4337" x2="32.8492" y2="62.2237" gradientUnits="userSpaceOnUse">
<stop stop-color="#F9DBAF"/>
<stop offset="0.495" stop-color="#938167"/>
<stop offset="1" stop-color="#F9DBAF"/>
</linearGradient>
</defs>
</svg>
